{"glyphs":{"0":{"ha":738,"x_min":124,"x_max":801,"o":"m 399 0 l 344 0 q 244 23 286 0 q 176 85 203 46 q 136 176 149 124 q 124 289 124 229 q 140 439 124 361 l 142 446 q 188 595 157 518 q 266 735 218 672 q 380 839 314 799 q 533 879 446 879 l 586 879 q 688 856 646 879 q 754 794 729 833 q 790 705 779 756 q 801 599 801 654 q 797 522 801 561 q 785 446 792 483 l 783 439 q 732 277 765 356 q 650 137 699 199 q 538 38 601 75 q 399 0 475 0 m 515 696 q 451 661 481 688 q 398 599 421 635 q 360 525 375 564 q 339 453 344 486 q 331 399 335 433 q 326 329 326 365 q 330 276 326 301 q 342 229 333 250 q 365 196 350 208 q 403 183 379 183 l 414 183 q 480 217 449 183 q 535 294 511 250 q 574 384 558 339 q 593 453 589 429 q 601 544 601 494 q 598 595 601 571 q 585 640 594 619 q 562 676 576 661 q 525 696 547 690 l 515 696 z "},"1":{"ha":393,"x_min":125,"x_max":532,"o":"m 196 696 l 300 696 l 215 293 q 202 238 211 272 q 181 165 193 203 q 155 92 169 128 q 125 32 140 56 l 315 -139 l 532 879 l 236 879 l 196 696 z "},"2":{"ha":572,"x_min":53,"x_max":688,"o":"m 307 183 l 653 688 q 672 731 665 706 q 685 783 678 756 q 687 796 686 790 q 688 804 688 801 q 669 858 688 836 q 622 879 650 879 l 236 879 l 196 696 l 449 696 l 110 193 q 74 97 83 146 l 53 0 l 524 0 l 563 183 l 307 183 z "},"3":{"ha":590,"x_min":49,"x_max":694,"o":"m 325 506 l 297 374 l 301 376 q 363 344 339 365 q 386 288 386 324 l 386 274 q 383 260 386 271 q 363 208 378 233 q 354 197 360 206 q 340 181 349 188 l 88 181 l 49 0 l 417 0 q 441 6 425 0 q 476 25 457 13 q 514 57 494 38 q 550 104 533 76 q 570 146 563 125 q 582 186 578 167 q 592 268 592 224 q 497 439 592 386 q 690 693 651 508 q 694 743 694 715 l 694 758 q 693 775 694 771 q 653 854 682 829 q 604 879 624 879 l 236 879 l 197 699 l 450 699 q 458 683 456 692 q 461 672 461 675 l 463 647 q 462 633 463 640 q 460 619 461 626 q 412 545 449 571 q 325 506 375 519 z "},"4":{"ha":624,"x_min":122,"x_max":763,"o":"m 236 879 l 122 347 l 457 347 l 446 293 q 433 238 442 272 q 412 165 424 203 q 385 92 400 128 q 356 32 371 56 l 546 -139 l 763 879 l 571 879 l 496 531 l 351 531 l 426 879 l 236 879 z "},"5":{"ha":572,"x_min":49,"x_max":711,"o":"m 343 183 l 204 707 l 242 879 l 711 879 l 671 696 l 418 696 l 546 193 q 547 178 547 190 l 547 164 q 545 131 547 149 q 540 97 543 114 q 513 44 533 65 q 467 11 493 22 q 445 1 457 3 q 426 0 433 0 l 49 0 l 88 183 l 343 183 z "},"6":{"ha":651,"x_min":124,"x_max":789,"o":"m 714 531 l 364 531 q 427 633 388 585 q 519 696 467 681 l 749 696 l 789 879 l 488 879 q 369 839 425 879 q 267 736 313 799 q 190 597 222 674 q 142 446 157 519 l 140 439 q 124 292 124 364 q 136 178 124 231 q 176 85 149 125 q 245 23 203 46 q 347 0 288 0 l 601 0 l 714 531 m 483 347 l 447 179 l 406 179 q 367 194 382 179 q 343 233 351 210 q 331 288 335 257 q 328 347 328 318 l 483 347 z "},"7":{"ha":568,"x_min":71,"x_max":707,"o":"m 268 0 l 671 710 l 707 879 l 236 879 l 196 696 l 454 696 l 71 0 l 268 0 z "},"8":{"ha":703,"x_min":81,"x_max":807,"o":"m 361 879 q 302 854 342 879 q 228 775 263 829 q 206 731 215 751 q 194 693 197 710 q 185 610 185 656 q 279 439 185 492 q 86 186 125 371 q 81 142 81 169 q 85 104 81 122 q 101 57 90 76 q 124 25 111 38 q 151 6 138 13 q 174 0 164 0 l 529 0 q 553 6 538 0 q 588 25 569 13 q 626 57 607 38 q 663 104 646 76 q 683 146 675 125 q 694 186 690 167 q 704 268 704 224 q 610 439 704 386 q 803 693 764 508 q 807 743 807 715 q 806 758 807 750 q 804 775 806 767 q 765 854 793 829 q 717 879 736 879 l 361 879 m 317 208 q 315 221 315 211 l 315 235 q 316 247 315 240 q 318 260 317 253 q 354 335 329 308 q 428 375 379 361 l 432 376 l 433 375 q 485 347 468 364 q 501 299 501 329 q 496 260 501 278 q 475 208 490 233 q 467 197 472 206 q 453 181 461 188 l 328 181 q 319 197 321 188 q 317 208 317 206 m 461 503 l 456 506 q 389 581 389 524 q 394 619 389 601 q 415 672 400 639 q 423 683 418 675 q 438 699 428 692 l 563 699 q 571 683 568 692 q 574 672 574 675 l 575 647 q 574 633 575 640 q 572 619 574 626 q 535 544 561 571 q 461 503 510 517 z "},"9":{"ha":650,"x_min":49,"x_max":713,"o":"m 122 349 l 472 349 q 409 247 449 294 q 317 183 369 199 l 88 183 l 49 0 l 350 0 q 468 40 413 0 q 569 143 524 81 q 647 283 614 206 q 694 433 679 360 l 696 440 q 713 589 713 517 q 700 701 713 649 q 660 794 688 754 q 591 856 633 833 q 490 879 549 879 l 236 879 l 122 349 m 353 532 l 389 700 l 431 700 q 469 685 454 700 q 493 646 485 669 q 505 592 501 622 q 508 532 508 561 l 353 532 z "}," ":{"ha":397,"x_min":0,"x_max":0,"o":""},"!":{"ha":290,"x_min":49,"x_max":428,"o":"m 428 879 l 303 293 l 111 293 l 236 879 l 428 879 m 49 0 l 88 183 l 279 183 l 240 0 l 49 0 z "},"\"":{"ha":533,"x_min":171,"x_max":672,"o":"m 414 576 l 479 879 l 672 879 l 632 690 q 604 659 628 678 q 549 622 581 640 q 480 591 517 604 q 414 576 443 578 m 171 576 l 236 879 l 429 879 l 389 690 q 361 659 385 678 q 306 622 338 640 q 237 591 274 604 q 171 576 200 578 z "},"#":{"ha":822,"x_min":94,"x_max":915,"o":"m 915 665 l 788 665 l 833 879 l 642 879 l 596 665 l 508 665 l 554 879 l 363 879 l 317 665 l 190 665 l 151 482 l 278 482 l 260 396 l 133 396 l 94 213 l 218 213 q 185 115 204 165 q 147 32 167 64 l 338 -139 l 413 213 l 497 213 q 465 115 483 165 q 426 32 446 64 l 617 -139 l 692 213 l 819 213 l 858 396 l 731 396 l 749 482 l 876 482 l 915 665 m 557 482 l 539 396 l 451 396 l 469 482 l 557 482 z "},"$":{"ha":572,"x_min":49,"x_max":711,"o":"m 343 183 l 88 183 l 49 0 l 190 0 l 157 -156 l 349 -156 l 382 0 l 426 0 q 445 1 433 0 q 467 11 457 3 q 513 44 493 22 q 540 97 533 65 q 546 193 550 140 l 418 696 l 671 696 l 711 879 l 569 879 l 601 1032 l 410 1032 l 378 879 l 325 879 q 260 850 292 879 q 221 783 229 821 q 210 731 214 756 q 211 688 207 706 l 343 183 z "},"%":{"ha":900,"x_min":181,"x_max":907,"o":"m 708 879 l 900 879 l 376 0 l 186 0 l 708 879 m 750 281 q 719 256 731 276 q 706 219 708 236 l 706 215 q 703 202 704 210 q 701 188 701 194 q 706 164 701 175 q 721 153 710 153 l 724 153 q 747 170 736 153 q 764 203 757 188 q 772 225 771 219 q 772 242 772 231 q 767 267 772 256 q 751 281 763 278 l 750 281 m 706 0 l 678 0 q 594 40 619 0 q 568 138 568 79 q 576 219 568 178 l 576 222 q 600 297 585 258 q 639 367 615 336 q 695 419 663 399 q 772 439 728 439 l 799 439 q 850 427 829 439 q 883 396 871 415 q 901 351 896 376 q 907 297 907 325 q 899 222 907 260 l 899 219 q 874 138 890 178 q 832 68 857 99 q 775 19 807 38 q 706 0 743 0 m 363 719 q 332 695 343 715 q 318 658 321 675 q 315 647 317 654 q 314 629 314 639 q 319 603 314 615 q 335 592 324 592 l 338 592 q 360 609 350 592 q 376 642 369 626 q 384 664 383 658 q 385 681 385 669 q 380 706 385 694 q 364 719 375 717 l 363 719 m 318 439 l 290 439 q 206 478 232 439 q 181 576 181 518 q 189 658 181 617 l 189 661 q 213 736 197 697 q 251 806 228 775 q 308 858 275 838 q 385 878 340 878 l 411 878 q 463 866 442 878 q 496 835 483 854 q 514 790 508 815 q 519 736 519 764 q 511 661 519 699 l 511 658 q 486 577 503 617 q 444 507 469 538 q 388 458 419 476 q 318 439 356 439 z "},"&":{"ha":700,"x_min":81,"x_max":765,"o":"m 394 619 q 390 586 390 600 q 413 531 390 549 l 765 531 l 726 347 l 669 347 q 672 324 671 336 q 672 297 672 311 q 658 186 672 240 q 647 146 654 167 q 626 104 639 125 q 590 57 610 76 q 552 25 571 38 q 517 6 533 13 q 493 0 501 0 l 174 0 q 151 6 164 0 q 124 25 138 13 q 101 57 111 38 q 85 104 90 76 q 81 142 81 122 q 86 186 81 169 q 279 439 125 371 q 185 610 185 492 q 194 693 185 656 q 206 731 197 710 q 228 775 215 751 q 302 854 263 829 q 361 879 342 879 l 661 879 q 694 866 678 879 q 723 832 710 853 q 744 785 736 811 q 753 732 753 758 q 752 718 753 725 q 750 704 751 711 l 746 689 q 738 654 743 675 q 729 628 733 633 l 508 628 l 518 672 q 515 683 518 675 q 507 699 513 692 l 438 699 q 423 683 428 692 q 415 672 418 675 q 394 619 400 639 m 317 208 q 319 197 317 206 q 328 181 321 188 l 417 181 q 431 197 425 188 q 439 208 436 206 q 460 260 454 233 q 465 288 463 275 q 467 313 467 301 q 456 351 467 336 q 415 375 444 365 l 414 376 l 410 375 q 371 358 386 368 q 345 335 356 349 q 329 303 335 321 q 318 260 324 285 q 316 247 317 253 q 315 235 315 240 l 315 221 q 317 208 315 211 z "},"'":{"ha":288,"x_min":169,"x_max":428,"o":"m 169 576 l 235 879 l 428 879 l 388 690 q 360 659 383 678 q 304 622 336 640 q 235 591 272 604 q 169 576 199 578 z "},"(":{"ha":493,"x_min":114,"x_max":642,"o":"m 289 -50 q 210 -27 243 -50 q 156 35 178 -4 q 124 124 135 74 q 114 232 114 175 q 118 307 114 269 q 129 383 122 344 l 151 489 q 204 651 169 572 q 289 791 239 729 q 403 890 339 853 q 544 928 468 928 l 642 928 l 603 744 l 517 744 q 447 704 478 744 q 392 610 415 664 q 354 504 369 557 q 333 426 339 451 q 324 366 328 400 q 319 296 319 332 q 333 192 319 239 q 386 135 347 146 l 474 135 l 433 -50 l 289 -50 z "},")":{"ha":493,"x_min":38,"x_max":567,"o":"m 38 -50 l 78 135 l 165 135 q 229 177 200 143 q 281 256 258 211 q 320 347 304 300 q 343 426 336 393 q 349 459 346 439 q 354 504 351 479 q 358 556 357 529 q 360 610 360 583 q 345 705 360 665 q 293 744 331 744 l 207 744 l 246 928 l 343 928 q 445 905 403 928 q 515 842 488 882 q 554 749 542 803 q 567 636 567 696 q 550 489 567 564 l 528 383 q 479 233 513 310 q 400 93 446 156 q 298 -10 354 31 q 182 -50 242 -50 l 38 -50 z "},"*":{"ha":383,"x_min":221,"x_max":507,"o":"m 368 679 l 346 740 l 304 681 l 226 751 l 289 794 l 221 813 l 275 908 l 331 879 l 336 946 l 451 946 l 424 878 l 494 907 l 507 810 l 436 794 l 475 749 l 368 679 z "},"+":{"ha":606,"x_min":122,"x_max":669,"o":"m 542 693 l 507 531 l 669 531 l 631 347 l 468 347 l 433 185 l 250 185 l 285 347 l 122 347 l 161 531 l 324 531 l 358 693 l 542 693 z "},",":{"ha":290,"x_min":26,"x_max":281,"o":"m 26 -106 l 88 183 l 281 183 l 243 8 q 215 -23 239 -4 q 160 -60 192 -42 q 92 -91 128 -78 q 26 -106 56 -104 z "},"-":{"ha":449,"x_min":122,"x_max":513,"o":"m 161 531 l 513 531 l 474 347 l 122 347 l 161 531 z "},".":{"ha":290,"x_min":49,"x_max":281,"o":"m 49 0 l 88 183 l 281 183 l 242 0 l 49 0 z "},"/":{"ha":624,"x_min":49,"x_max":763,"o":"m 49 0 l 239 0 l 763 879 l 571 879 l 49 0 z "},":":{"ha":290,"x_min":49,"x_max":374,"o":"m 49 0 l 88 183 l 281 183 l 242 0 l 49 0 m 142 438 l 181 621 l 374 621 l 335 438 l 142 438 z "},";":{"ha":290,"x_min":26,"x_max":374,"o":"m 142 438 l 181 621 l 374 621 l 335 438 l 142 438 m 26 -106 l 88 183 l 281 183 l 243 8 q 215 -23 239 -4 q 160 -60 192 -42 q 92 -91 128 -78 q 26 -106 56 -104 z "},"<":{"ha":454,"x_min":140,"x_max":594,"o":"m 217 0 l 140 440 l 403 879 l 594 879 l 332 440 l 407 0 l 217 0 z "},"=":{"ha":549,"x_min":94,"x_max":642,"o":"m 190 665 l 642 665 l 603 482 l 151 482 l 190 665 m 133 396 l 585 396 l 546 213 l 94 213 l 133 396 z "},">":{"ha":453,"x_min":47,"x_max":499,"o":"m 238 0 l 47 0 l 307 440 l 235 879 l 426 879 l 499 440 l 238 0 z "},"?":{"ha":590,"x_min":139,"x_max":694,"o":"m 296 504 q 263 485 275 497 q 236 457 251 474 l 201 293 l 393 293 l 414 393 q 590 489 519 421 q 688 679 661 557 l 690 693 q 694 743 694 715 l 694 758 q 693 775 694 771 q 653 854 682 829 q 604 879 624 879 l 236 879 l 197 699 l 450 699 q 458 683 456 692 q 461 672 461 675 l 463 647 q 462 633 463 640 q 460 619 461 626 q 438 576 454 594 q 398 544 421 558 q 348 521 375 531 q 296 504 321 511 m 139 0 l 331 0 l 369 183 l 178 183 l 139 0 z "},"@":{"ha":972,"x_min":115,"x_max":1057,"o":"m 528 214 l 717 214 q 831 240 778 214 q 925 313 883 267 q 997 421 967 358 q 1042 557 1026 483 l 1043 561 q 1053 626 1050 594 q 1057 686 1057 658 q 1000 863 1057 799 q 821 928 943 928 l 546 928 q 405 890 469 928 q 290 791 340 853 q 206 651 240 729 q 153 489 171 572 l 131 383 q 119 307 124 344 q 115 232 115 269 q 126 124 115 175 q 158 35 136 74 q 212 -27 179 -4 q 290 -50 244 -50 l 865 -50 l 906 135 l 388 135 q 335 193 350 146 q 321 299 321 240 q 324 368 321 335 q 333 426 328 401 q 342 458 336 439 q 354 504 347 478 q 382 583 365 542 q 419 661 399 625 q 465 721 440 697 q 518 744 490 744 l 771 744 q 813 735 796 744 q 839 712 829 726 q 853 678 849 697 q 857 639 857 660 q 854 600 857 619 q 849 564 851 581 q 805 449 835 501 q 715 374 775 396 l 775 653 l 622 653 q 545 633 578 653 q 489 581 513 613 q 450 511 465 550 q 426 436 435 472 l 425 433 q 417 360 417 396 q 442 256 417 297 q 528 214 468 214 m 600 494 l 613 494 l 585 367 l 571 367 q 556 379 560 367 q 551 406 551 392 q 552 419 551 413 q 554 433 553 426 q 569 470 558 450 q 600 494 581 490 z "},"A":{"ha":653,"x_min":15,"x_max":814,"o":"m 15 -156 l 158 517 q 199 647 171 576 q 268 782 226 717 q 363 899 310 847 q 481 975 417 951 q 503 982 489 979 q 521 985 518 985 l 814 985 l 604 0 l 392 0 l 464 342 l 332 342 l 325 328 q 318 282 322 310 q 310 223 314 254 q 303 159 306 192 q 300 97 300 126 q 306 36 300 54 l 15 -156 m 551 782 q 492 743 519 768 q 444 688 465 718 q 406 622 422 657 q 378 553 389 588 l 378 547 l 508 547 l 556 769 l 551 782 z "},"B":{"ha":664,"x_min":49,"x_max":788,"o":"m 478 0 l 49 0 l 258 985 l 688 985 q 741 956 710 985 q 785 868 772 928 q 787 849 786 858 q 788 831 788 840 q 782 776 788 797 q 708 601 760 672 q 568 492 656 531 q 672 304 672 435 q 661 208 672 272 q 648 163 656 186 q 625 117 640 140 q 544 27 586 54 q 478 0 501 0 m 349 418 l 303 203 l 394 203 q 410 220 404 210 q 419 233 417 231 q 440 290 433 264 q 444 322 444 307 q 419 385 444 363 q 353 422 393 408 l 349 418 m 382 563 q 476 608 436 578 q 526 694 515 639 q 531 729 531 711 l 529 753 q 526 765 529 756 q 518 782 524 775 l 426 782 l 381 567 l 382 563 z "},"C":{"ha":639,"x_min":133,"x_max":800,"o":"m 756 779 l 569 779 q 497 738 529 768 q 438 669 464 708 q 395 588 413 631 q 369 507 378 544 q 361 453 365 488 q 357 378 357 418 q 361 315 357 346 q 375 260 365 285 q 401 221 385 236 q 443 206 418 206 l 633 206 l 590 0 l 376 0 q 265 26 311 0 q 190 95 219 51 q 147 199 161 139 q 133 325 133 258 q 151 492 133 418 l 154 500 q 207 668 171 582 q 293 824 243 754 q 405 940 343 894 q 535 985 467 985 l 800 985 l 756 779 z "},"D":{"ha":706,"x_min":49,"x_max":781,"o":"m 379 0 l 49 0 l 258 985 l 538 985 q 648 959 601 985 q 724 890 694 933 q 767 788 753 846 q 781 663 781 729 q 776 576 781 618 q 763 493 772 533 l 761 485 q 708 317 744 403 q 620 160 671 231 q 508 45 569 90 q 379 0 446 0 m 304 207 l 344 207 q 418 246 385 217 q 477 314 451 275 q 520 397 503 353 q 546 478 538 440 q 553 527 550 497 q 556 592 556 557 q 551 658 556 625 q 537 719 547 692 q 508 763 526 746 q 464 779 490 779 l 425 779 l 304 207 z "},"E":{"ha":640,"x_min":49,"x_max":801,"o":"m 49 0 l 258 985 l 801 985 l 757 779 l 426 779 l 388 594 l 622 594 l 579 389 l 344 389 l 304 206 l 635 206 l 592 0 l 49 0 z "},"F":{"ha":640,"x_min":15,"x_max":801,"o":"m 328 313 l 344 389 l 579 389 l 622 594 l 388 594 l 426 779 l 757 779 l 801 985 l 258 985 l 15 -156 l 306 36 q 304 56 304 40 l 304 79 q 306 138 304 106 q 312 201 308 169 q 319 261 315 232 q 328 313 324 290 z "},"G":{"ha":706,"x_min":133,"x_max":867,"o":"m 783 594 l 726 328 q 717 281 722 308 q 708 221 713 253 q 701 156 704 189 q 699 93 699 122 q 703 36 699 58 l 413 -156 l 446 0 l 376 0 q 265 26 311 0 q 190 95 219 51 q 147 199 161 139 q 133 325 133 258 q 151 492 133 418 l 154 500 q 207 668 171 582 q 293 824 243 754 q 405 940 343 894 q 535 985 467 985 l 867 985 l 822 779 l 569 779 q 498 738 531 768 q 440 669 465 708 q 396 588 414 631 q 369 507 378 544 q 362 455 365 488 q 358 385 358 422 q 363 319 358 351 q 376 260 367 286 q 401 217 385 233 q 443 200 418 200 l 489 200 l 572 594 l 783 594 z "},"H":{"ha":676,"x_min":15,"x_max":838,"o":"m 838 985 l 628 0 l 418 0 l 501 389 l 343 389 l 329 328 q 320 281 325 308 q 311 221 315 253 q 304 156 307 189 q 301 93 301 122 q 306 36 301 58 l 15 -156 l 258 985 l 469 985 l 386 594 l 544 594 l 628 985 l 838 985 z "},"I":{"ha":307,"x_min":15,"x_max":469,"o":"m 469 985 l 329 328 q 320 281 325 308 q 311 221 315 253 q 304 156 307 189 q 301 93 301 122 q 306 36 301 58 l 15 -156 l 258 985 l 469 985 z "},"J":{"ha":653,"x_min":49,"x_max":814,"o":"m 313 203 l 307 217 l 344 390 l 132 390 l 49 0 l 331 0 q 390 20 356 0 q 463 75 425 40 q 540 156 501 110 q 610 253 578 201 q 668 360 643 306 q 704 468 693 415 l 814 985 l 603 985 l 485 432 q 458 364 474 399 q 420 298 442 329 q 372 242 399 267 q 313 203 344 217 z "},"K":{"ha":663,"x_min":15,"x_max":822,"o":"m 822 985 l 608 985 l 588 886 q 570 815 582 861 q 538 718 558 768 q 489 624 518 668 q 421 560 460 579 l 379 550 l 376 547 l 469 985 l 258 985 l 15 -156 l 306 36 q 301 93 301 58 q 304 156 301 122 q 311 221 307 189 q 320 281 315 253 q 329 328 325 308 l 357 454 l 361 454 l 369 433 q 468 210 417 321 q 596 0 519 100 l 818 0 q 685 228 738 114 q 586 472 633 342 q 660 553 626 507 q 722 652 694 599 q 769 764 749 706 q 801 881 789 822 l 822 985 z "},"L":{"ha":640,"x_min":49,"x_max":635,"o":"m 49 0 l 258 985 l 471 985 l 304 206 l 635 206 l 592 0 l 49 0 z "},"M":{"ha":817,"x_min":49,"x_max":978,"o":"m 49 0 l 258 985 l 460 985 l 568 753 l 776 985 l 978 985 l 768 0 l 557 0 l 703 683 l 515 476 l 503 476 l 407 683 l 261 0 l 49 0 z "},"N":{"ha":693,"x_min":49,"x_max":854,"o":"m 49 0 l 258 985 l 468 985 l 593 749 l 643 985 l 854 985 l 644 0 l 433 0 l 535 475 l 413 710 l 261 0 l 49 0 z "},"O":{"ha":801,"x_min":133,"x_max":879,"o":"m 433 0 l 374 0 q 263 25 308 0 q 189 94 218 50 q 147 197 160 138 q 133 322 133 256 q 138 409 133 367 q 151 492 142 451 l 154 500 q 204 667 171 581 q 290 824 238 753 q 416 940 343 894 q 585 985 489 985 l 643 985 q 755 959 710 985 q 828 890 800 933 q 867 790 856 847 q 879 671 879 733 q 874 585 879 628 q 861 500 869 542 l 858 492 q 802 310 839 399 q 712 153 765 222 q 588 42 658 85 q 433 0 518 0 m 565 779 q 493 740 525 769 q 436 672 461 711 q 394 588 411 632 q 369 507 378 544 q 360 450 364 486 q 356 374 356 414 q 360 312 356 342 q 373 258 364 282 q 398 220 382 235 q 439 206 414 206 l 450 206 q 523 243 489 206 q 583 331 557 281 q 626 431 610 381 q 649 507 643 481 q 660 611 660 567 q 642 717 660 669 q 576 779 624 765 l 565 779 z "},"P":{"ha":663,"x_min":15,"x_max":788,"o":"m 361 436 l 353 436 l 329 328 q 320 281 325 308 q 311 221 315 253 q 304 156 307 189 q 301 93 301 122 q 306 36 301 58 l 15 -156 l 258 985 l 688 985 q 741 956 710 985 q 785 868 772 928 q 787 849 786 858 q 788 831 788 840 q 782 776 788 797 q 729 637 765 699 q 640 531 693 575 q 517 462 588 486 q 361 436 446 438 m 376 547 l 378 544 q 474 599 433 560 q 526 694 515 639 q 531 729 531 711 l 529 753 q 526 765 529 756 q 518 782 524 775 l 426 782 l 376 547 z "},"Q":{"ha":801,"x_min":133,"x_max":879,"o":"m 433 0 l 374 0 q 263 25 308 0 q 189 94 218 50 q 147 197 160 138 q 133 322 133 256 q 138 409 133 367 q 151 492 142 451 l 154 500 q 204 667 171 581 q 290 824 238 753 q 416 940 343 894 q 585 985 489 985 l 643 985 q 755 959 710 985 q 828 890 800 933 q 867 790 856 847 q 879 671 879 733 q 874 585 879 628 q 861 500 869 542 l 858 492 q 806 318 839 400 q 721 165 774 236 q 781 51 749 107 q 850 -65 813 -6 l 629 -65 q 597 -19 613 -42 q 565 31 581 4 q 433 0 506 0 m 388 454 l 608 454 q 611 431 608 439 q 621 414 614 422 q 638 467 632 443 q 649 507 644 492 q 660 611 660 567 q 642 717 660 669 q 576 779 624 765 l 565 779 q 493 740 525 769 q 436 672 461 711 q 394 588 411 632 q 369 507 378 544 q 360 450 364 486 q 356 374 356 414 q 360 312 356 342 q 373 258 364 282 q 398 220 382 235 q 439 206 414 206 l 450 206 q 476 210 468 206 q 425 338 449 276 q 388 454 401 399 z "},"R":{"ha":665,"x_min":15,"x_max":818,"o":"m 357 436 l 353 436 l 329 328 q 320 281 325 308 q 311 221 315 253 q 304 156 307 189 q 301 93 301 122 q 306 36 301 58 l 15 -156 l 258 985 l 688 985 q 741 956 710 985 q 785 868 772 928 q 787 849 786 858 q 788 831 788 840 q 782 776 788 797 q 708 610 761 676 q 576 503 656 543 q 628 367 603 432 q 681 240 653 301 q 743 119 710 179 q 818 0 776 60 l 596 0 q 461 211 517 104 q 357 436 406 318 m 376 547 l 378 544 q 474 599 433 560 q 526 694 515 639 q 531 729 531 711 l 529 753 q 526 765 529 756 q 518 782 524 775 l 426 782 l 376 547 z "},"S":{"ha":619,"x_min":49,"x_max":781,"o":"m 372 206 l 231 769 q 228 783 229 776 q 228 794 228 789 q 231 833 228 813 q 240 878 235 854 q 256 918 244 899 q 284 952 268 938 q 319 976 300 967 q 356 985 338 985 l 781 985 l 736 779 l 458 779 l 596 217 q 598 198 597 207 q 599 178 599 189 q 590 108 599 147 q 573 67 586 86 q 542 33 560 47 q 504 9 525 18 q 464 0 483 0 l 49 0 l 92 206 l 372 206 z "},"T":{"ha":692,"x_min":207,"x_max":853,"o":"m 214 779 l 258 985 l 853 985 l 808 779 l 617 779 l 521 328 q 512 279 517 308 q 503 217 507 250 q 497 149 500 183 q 494 85 494 114 l 494 58 q 495 49 494 54 q 497 36 496 43 l 207 -156 l 406 779 l 214 779 z "},"U":{"ha":782,"x_min":135,"x_max":943,"o":"m 410 0 l 375 0 q 265 25 310 0 q 190 94 219 50 q 148 197 161 138 q 135 322 135 256 q 139 409 135 367 q 153 492 143 451 l 258 985 l 472 985 l 371 507 q 360 443 365 483 q 354 358 354 403 q 358 301 354 329 q 370 253 361 274 q 394 219 379 232 q 432 206 408 206 l 435 206 q 507 243 474 206 q 565 331 540 281 q 606 431 590 381 q 628 507 622 481 l 729 985 l 943 985 l 838 492 q 781 310 818 399 q 689 153 743 222 q 565 42 635 85 q 410 0 494 0 z "},"V":{"ha":668,"x_min":139,"x_max":829,"o":"m 351 432 l 469 985 l 258 985 l 149 468 q 139 375 139 431 q 156 238 139 306 q 201 118 174 171 q 263 33 229 65 q 331 0 297 0 l 338 0 q 398 20 363 0 q 472 75 433 40 q 550 156 511 110 q 623 253 589 201 q 683 360 657 306 q 719 468 708 415 l 829 985 l 618 985 l 500 432 q 453 335 482 383 q 388 250 424 286 q 360 319 369 281 q 350 400 350 358 l 350 415 q 351 432 350 428 z "},"W":{"ha":817,"x_min":49,"x_max":978,"o":"m 258 985 l 49 0 l 250 0 l 457 232 l 567 0 l 768 0 l 978 985 l 767 985 l 621 303 l 522 508 l 510 508 l 325 303 l 471 985 l 258 985 z "},"X":{"ha":782,"x_min":49,"x_max":943,"o":"m 756 104 l 733 0 l 519 0 l 539 89 q 549 151 544 111 q 554 233 554 190 q 551 291 554 263 q 538 342 547 319 q 514 378 529 364 q 475 392 499 392 l 472 392 q 399 354 432 392 q 342 267 367 317 q 303 166 318 217 q 282 89 288 115 l 263 0 l 49 0 l 71 104 q 144 320 94 217 q 268 494 193 424 q 228 591 240 538 q 217 707 217 644 q 222 790 217 747 q 236 881 226 833 l 258 985 l 472 985 l 453 896 q 442 831 447 872 q 438 746 438 790 q 441 690 438 717 q 453 642 444 663 q 476 608 461 621 q 515 594 492 594 l 518 594 q 590 632 557 594 q 649 719 624 669 q 689 819 674 769 q 710 896 704 869 l 729 985 l 943 985 l 921 881 q 847 665 897 768 q 726 492 797 563 q 776 285 776 410 q 756 104 776 197 z "},"Y":{"ha":782,"x_min":217,"x_max":943,"o":"m 921 881 q 872 720 903 799 q 799 576 842 642 q 699 465 756 511 q 575 400 643 418 l 560 328 q 551 281 556 308 q 542 221 546 253 q 535 156 538 189 q 532 93 532 122 q 536 36 532 58 l 247 -156 l 367 404 q 251 517 286 438 q 217 703 217 596 q 222 788 217 743 q 236 881 226 832 l 258 985 l 472 985 l 453 896 q 442 831 447 872 q 438 746 438 790 q 441 690 438 717 q 453 642 444 663 q 476 608 461 621 q 515 594 492 594 l 518 594 q 590 632 557 594 q 649 719 624 669 q 689 819 674 769 q 710 896 704 869 l 729 985 l 943 985 l 921 881 z "},"Z":{"ha":619,"x_min":54,"x_max":776,"o":"m 614 206 l 571 0 l 54 0 l 78 108 q 115 217 92 181 l 492 779 l 214 779 l 258 985 l 776 985 l 751 869 q 738 813 744 839 q 717 769 731 788 l 333 206 l 614 206 z "},"[":{"ha":433,"x_min":29,"x_max":592,"o":"m 29 -94 l 256 971 l 592 971 l 553 788 l 410 788 l 261 89 l 404 89 l 365 -94 l 29 -94 z "},"\\":{"ha":624,"x_min":236,"x_max":575,"o":"m 575 0 l 385 0 l 236 879 l 428 879 l 575 0 z "},"]":{"ha":433,"x_min":29,"x_max":592,"o":"m 365 -94 l 592 971 l 256 971 l 217 788 l 360 788 l 211 89 l 68 89 l 29 -94 l 365 -94 z "},"^":{"ha":603,"x_min":49,"x_max":665,"o":"m 525 -139 l 653 461 q 665 588 665 519 q 658 676 665 632 q 636 759 651 721 q 596 826 621 797 q 535 871 571 856 q 517 876 528 874 q 503 879 506 879 l 236 879 l 49 0 l 242 0 l 307 306 l 428 306 l 428 293 q 414 238 424 272 q 392 165 404 203 q 365 92 379 128 q 335 32 350 56 l 525 -139 m 397 699 q 453 631 438 678 q 468 532 468 585 l 468 513 q 467 493 468 497 l 465 489 l 346 489 l 388 688 l 397 699 z "},"_":{"ha":614,"x_min":42,"x_max":585,"o":"m 68 90 l 585 90 l 558 -32 l 42 -32 l 68 90 z "},"`":{"ha":331,"x_min":267,"x_max":468,"o":"m 318 878 l 267 1025 l 433 1025 l 468 878 l 318 878 z "},"a":{"ha":603,"x_min":19,"x_max":742,"o":"m 19 -139 l 147 461 q 183 578 158 515 q 246 699 208 640 q 331 803 283 757 q 438 871 379 850 q 459 876 446 874 q 475 879 472 879 l 742 879 l 554 0 l 361 0 l 426 306 l 306 306 l 300 293 q 294 253 297 276 q 287 202 290 229 q 281 147 283 175 q 278 92 278 118 q 282 32 278 54 l 19 -139 m 503 699 q 449 664 474 686 q 406 614 425 642 q 371 555 386 586 q 344 493 356 524 l 346 489 l 465 489 l 507 688 l 503 699 z "},"b":{"ha":613,"x_min":49,"x_max":717,"o":"m 439 0 l 49 0 l 236 879 l 626 879 q 675 854 646 879 q 715 775 704 829 q 717 758 717 771 l 717 743 q 713 693 717 715 q 519 439 674 508 q 614 268 614 386 q 604 186 614 224 q 592 146 600 167 q 572 104 585 125 q 536 57 556 76 q 498 25 517 38 q 463 6 479 13 q 439 0 447 0 m 319 374 l 279 181 l 363 181 q 376 197 371 188 q 385 208 382 206 q 406 260 400 233 q 408 274 408 271 l 408 288 q 385 344 408 324 q 324 376 361 365 l 319 374 m 350 503 q 435 544 400 517 q 482 619 471 571 q 484 633 483 626 q 485 647 485 640 l 483 672 q 481 683 483 675 q 472 699 478 692 l 389 699 l 347 506 l 350 503 z "},"c":{"ha":590,"x_min":124,"x_max":729,"o":"m 689 696 l 519 696 q 453 660 483 686 q 401 599 424 633 q 362 525 378 564 q 339 453 346 486 q 332 404 336 435 q 328 339 328 374 q 331 283 328 311 q 344 233 335 256 q 368 197 353 211 q 407 183 383 183 l 581 183 l 542 0 l 347 0 q 245 23 288 0 q 176 85 203 46 q 136 178 149 125 q 124 292 124 231 q 140 439 124 364 l 142 446 q 190 597 157 519 q 267 736 222 674 q 369 839 313 799 q 488 879 425 879 l 729 879 l 689 696 z "},"d":{"ha":650,"x_min":49,"x_max":713,"o":"m 350 0 l 49 0 l 236 879 l 490 879 q 591 856 549 879 q 660 794 633 833 q 700 701 688 754 q 713 589 713 649 q 696 440 713 517 l 694 433 q 647 283 679 360 q 568 143 614 206 q 467 40 522 81 q 350 0 411 0 m 279 185 l 317 185 q 383 219 353 193 q 438 281 414 246 q 477 354 461 315 q 500 426 493 393 q 506 469 503 443 q 508 524 508 494 q 505 585 508 554 q 492 640 501 615 q 465 681 482 665 q 424 696 449 696 l 388 696 l 279 185 z "},"e":{"ha":592,"x_min":49,"x_max":731,"o":"m 49 0 l 236 879 l 731 879 l 690 696 l 389 696 l 354 531 l 568 531 l 529 347 l 315 347 l 281 183 l 582 183 l 543 0 l 49 0 z "},"f":{"ha":592,"x_min":19,"x_max":731,"o":"m 301 279 l 315 347 l 529 347 l 568 531 l 354 531 l 389 696 l 690 696 l 731 879 l 236 879 l 19 -139 l 282 32 q 278 83 278 53 q 285 188 278 132 q 301 279 293 243 z "},"g":{"ha":651,"x_min":124,"x_max":789,"o":"m 714 531 l 664 293 q 656 250 660 276 q 648 194 651 224 q 642 135 644 165 q 640 78 640 104 l 640 53 q 641 44 640 50 q 643 32 642 39 l 381 -139 l 410 0 l 347 0 q 245 23 288 0 q 176 85 203 46 q 136 178 149 125 q 124 292 124 231 q 140 439 124 364 l 142 446 q 190 597 157 519 q 267 736 222 674 q 369 839 313 799 q 488 879 425 879 l 789 879 l 749 696 l 519 696 q 453 660 483 686 q 401 599 424 633 q 363 525 378 564 q 340 453 347 486 q 333 401 336 433 q 329 333 329 369 q 333 278 329 306 q 344 228 336 250 q 367 192 353 206 q 406 179 382 179 l 447 179 l 522 531 l 714 531 z "},"h":{"ha":624,"x_min":19,"x_max":763,"o":"m 763 879 l 575 0 l 385 0 l 458 347 l 314 347 l 303 293 q 296 250 300 276 q 288 194 292 224 q 282 135 285 165 q 279 78 279 104 l 279 53 q 280 44 279 50 q 282 32 281 39 l 19 -139 l 236 879 l 428 879 l 353 531 l 497 531 l 572 879 l 763 879 z "},"i":{"ha":290,"x_min":19,"x_max":428,"o":"m 428 879 l 303 293 q 294 251 299 276 q 287 197 290 226 q 281 138 283 168 q 279 81 279 107 l 279 54 q 280 44 279 50 q 282 32 281 39 l 19 -139 l 236 879 l 428 879 z "},"j":{"ha":603,"x_min":49,"x_max":742,"o":"m 289 181 l 283 193 l 315 349 l 122 349 l 49 0 l 306 0 q 392 39 340 0 q 494 138 443 78 q 586 273 544 199 q 643 418 628 347 l 742 879 l 550 879 l 444 386 q 419 326 433 357 q 385 266 404 294 q 342 215 367 238 q 289 181 318 193 z "},"k":{"ha":611,"x_min":19,"x_max":749,"o":"m 729 786 q 658 583 707 681 q 538 422 610 485 q 627 203 579 306 q 749 0 675 100 l 546 0 q 434 181 479 85 q 346 372 389 276 l 331 406 l 326 406 l 303 293 q 294 250 299 276 q 287 194 290 224 q 281 135 283 165 q 279 78 279 104 l 279 53 q 280 44 279 50 q 282 32 281 39 l 19 -139 l 236 879 l 428 879 l 344 489 l 347 492 q 368 496 360 494 q 386 500 376 497 q 447 558 421 518 q 490 642 472 597 q 519 728 508 686 q 535 792 531 769 l 554 879 l 749 879 l 729 786 z "},"l":{"ha":592,"x_min":49,"x_max":582,"o":"m 49 0 l 236 879 l 429 879 l 281 183 l 582 183 l 543 0 l 49 0 z "},"m":{"ha":751,"x_min":49,"x_max":890,"o":"m 49 0 l 236 879 l 419 879 l 519 672 l 707 879 l 890 879 l 703 0 l 511 0 l 640 610 l 471 425 l 460 425 l 371 610 l 242 0 l 49 0 z "},"n":{"ha":639,"x_min":49,"x_max":778,"o":"m 49 0 l 236 879 l 426 879 l 540 668 l 586 879 l 778 879 l 590 0 l 399 0 l 489 424 l 376 633 l 242 0 l 49 0 z "},"o":{"ha":738,"x_min":124,"x_max":801,"o":"m 399 0 l 344 0 q 244 23 286 0 q 176 85 203 46 q 136 176 149 124 q 124 289 124 229 q 140 439 124 361 l 142 446 q 188 595 157 518 q 266 735 218 672 q 380 839 314 799 q 533 879 446 879 l 586 879 q 688 856 646 879 q 754 794 729 833 q 790 705 779 756 q 801 599 801 654 q 797 522 801 561 q 785 446 792 483 l 783 439 q 732 277 765 356 q 650 137 699 199 q 538 38 601 75 q 399 0 475 0 m 515 696 q 451 661 481 688 q 398 599 421 635 q 360 525 375 564 q 339 453 344 486 q 331 399 335 433 q 326 329 326 365 q 330 276 326 301 q 342 229 333 250 q 365 196 350 208 q 403 183 379 183 l 414 183 q 480 217 449 183 q 535 294 511 250 q 574 384 558 339 q 593 453 589 429 q 601 544 601 494 q 598 595 601 571 q 585 640 594 619 q 562 676 576 661 q 525 696 547 690 l 515 696 z "},"p":{"ha":611,"x_min":19,"x_max":717,"o":"m 332 389 l 324 389 l 303 293 q 294 250 299 276 q 287 194 290 224 q 281 135 283 165 q 279 78 279 104 l 279 53 q 280 44 279 50 q 282 32 281 39 l 19 -139 l 236 879 l 626 879 q 675 854 646 879 q 715 775 704 829 q 717 758 717 771 l 717 743 q 713 693 717 715 q 666 569 697 625 q 587 473 635 513 q 475 411 539 433 q 332 389 411 389 m 344 489 l 346 486 q 433 535 396 500 q 482 619 471 571 q 484 633 483 626 q 485 647 485 640 l 483 672 q 481 683 483 675 q 472 699 478 692 l 389 699 l 344 489 z "},"q":{"ha":739,"x_min":124,"x_max":801,"o":"m 399 0 l 344 0 q 244 23 286 0 q 176 85 203 46 q 136 176 149 124 q 124 289 124 229 q 140 439 124 361 l 142 446 q 188 595 157 518 q 266 735 218 672 q 380 839 314 799 q 533 879 446 879 l 586 879 q 688 856 646 879 q 754 794 729 833 q 790 705 779 756 q 801 599 801 654 q 797 522 801 561 q 785 446 792 483 l 783 439 q 735 284 767 358 q 660 147 704 210 q 713 46 683 97 q 778 -58 743 -6 l 576 -58 q 547 -17 561 -37 q 518 28 533 4 q 399 0 451 0 m 354 406 l 556 406 q 568 369 556 382 q 583 421 578 400 q 592 453 589 442 q 599 499 596 475 q 601 547 601 524 q 584 641 601 597 q 525 696 567 685 l 515 696 q 451 661 481 688 q 398 599 421 635 q 360 525 375 564 q 339 453 344 486 q 331 399 335 433 q 326 329 326 365 q 330 276 326 301 q 342 229 333 250 q 365 196 350 208 q 403 183 379 183 l 414 183 q 438 188 426 183 q 390 301 411 246 q 354 406 368 357 z "},"r":{"ha":614,"x_min":19,"x_max":749,"o":"m 328 389 l 324 389 l 303 293 q 294 250 299 276 q 287 194 290 224 q 281 135 283 165 q 279 78 279 104 l 279 53 q 280 44 279 50 q 282 32 281 39 l 19 -139 l 236 879 l 626 879 q 675 854 646 879 q 715 775 704 829 q 717 758 717 771 l 717 743 q 713 693 717 715 q 646 545 693 606 q 528 449 599 485 q 574 327 551 385 q 623 215 597 269 q 679 107 649 160 q 749 0 710 54 l 546 0 q 423 188 474 92 q 328 389 372 285 m 344 489 l 346 486 q 433 535 396 500 q 482 619 471 571 q 484 633 483 626 q 485 647 485 640 l 483 672 q 481 683 483 675 q 472 699 478 692 l 389 699 l 344 489 z "},"s":{"ha":572,"x_min":49,"x_max":711,"o":"m 343 183 l 211 688 q 209 698 210 693 q 208 710 208 703 q 212 744 208 725 q 221 783 215 763 q 260 850 229 821 q 325 879 292 879 l 711 879 l 671 696 l 418 696 l 546 193 q 547 178 547 190 l 547 164 q 545 131 547 149 q 540 97 543 114 q 524 60 536 78 q 497 28 513 42 q 463 8 482 15 q 426 0 444 0 l 49 0 l 88 183 l 343 183 z "},"t":{"ha":638,"x_min":194,"x_max":776,"o":"m 196 696 l 236 879 l 776 879 l 736 696 l 563 696 l 478 293 q 469 247 474 275 q 462 188 465 219 q 456 125 458 157 q 454 67 454 93 l 454 47 q 456 32 454 35 l 194 -139 l 371 696 l 196 696 z "},"u":{"ha":719,"x_min":125,"x_max":858,"o":"m 378 0 q 517 38 454 0 q 630 137 581 75 q 713 277 679 199 q 764 439 746 356 l 858 879 l 664 879 l 572 453 q 552 384 567 429 q 516 294 538 339 q 465 217 494 250 q 400 183 436 183 l 397 183 q 363 195 376 183 q 340 226 349 207 q 328 270 332 246 q 325 321 325 294 q 330 397 325 360 q 339 453 335 433 l 431 879 l 236 879 l 142 439 q 125 289 125 361 q 138 176 125 229 q 177 85 150 124 q 246 23 204 46 q 346 0 288 0 l 378 0 z "},"v":{"ha":617,"x_min":129,"x_max":756,"o":"m 322 386 l 428 879 l 236 879 l 138 418 q 129 336 129 378 q 145 213 129 274 q 187 106 161 153 q 244 29 213 58 q 306 0 275 0 l 311 0 q 400 39 347 0 q 505 138 453 78 q 599 273 557 199 q 657 418 642 347 l 756 879 l 564 879 l 458 386 q 415 299 442 343 q 356 224 389 256 q 330 288 339 251 q 321 360 321 324 l 321 372 q 322 386 321 383 z "},"w":{"ha":751,"x_min":49,"x_max":890,"o":"m 236 879 l 49 0 l 232 0 l 421 207 l 519 0 l 703 0 l 890 879 l 699 879 l 568 271 l 478 454 l 467 454 l 299 271 l 429 879 l 236 879 z "},"x":{"ha":719,"x_min":49,"x_max":858,"o":"m 690 93 q 705 177 700 138 q 710 253 710 217 q 699 354 710 307 q 664 439 688 401 q 772 594 728 503 q 838 786 815 686 l 858 879 l 664 879 l 646 800 q 626 731 640 776 q 590 642 611 686 q 539 564 568 597 q 474 531 510 531 l 471 531 q 436 542 450 531 q 414 574 422 554 q 402 617 406 593 q 399 668 399 642 q 403 744 399 707 q 413 800 408 781 l 431 879 l 236 879 l 215 786 q 199 638 199 708 q 247 442 199 522 q 135 285 181 378 q 68 93 90 193 l 49 0 l 243 0 l 260 79 q 279 148 265 103 q 315 238 293 193 q 366 317 336 283 q 433 350 396 350 l 436 350 q 471 338 457 350 q 493 307 485 326 q 504 263 501 288 q 507 213 507 239 q 502 135 507 172 q 493 79 497 99 l 476 0 l 671 0 l 690 93 z "},"y":{"ha":719,"x_min":199,"x_max":858,"o":"m 838 786 q 795 643 822 713 q 728 515 768 574 q 638 415 689 457 q 526 357 588 374 l 513 293 q 504 250 508 276 q 497 194 500 224 q 491 135 493 165 q 489 78 489 104 l 489 53 q 490 44 489 50 q 492 32 490 39 l 231 -139 l 336 361 q 274 401 300 375 q 231 463 247 428 q 206 542 214 499 q 199 635 199 586 q 215 786 199 708 l 236 879 l 431 879 l 413 800 q 403 744 408 781 q 399 668 399 707 q 402 617 399 642 q 414 574 406 593 q 436 542 422 554 q 471 531 450 531 l 474 531 q 539 564 510 531 q 590 642 568 597 q 626 731 611 686 q 646 800 640 776 l 664 879 l 858 879 l 838 786 z "},"z":{"ha":572,"x_min":54,"x_max":707,"o":"m 563 183 l 524 0 l 54 0 l 75 97 q 110 193 88 161 l 449 696 l 196 696 l 236 879 l 707 879 l 686 783 q 672 731 679 756 q 653 688 665 706 l 307 183 l 563 183 z "},"{":{"ha":290,"x_min":49,"x_max":428,"o":"m 428 879 l 240 0 l 49 0 l 236 879 l 428 879 z "},"|":{"ha":289,"x_min":7,"x_max":468,"o":"m 7 -197 l 276 1074 l 468 1074 l 199 -197 l 7 -197 z "},"}":{"ha":603,"x_min":129,"x_max":742,"o":"m 393 181 l 403 193 l 549 879 l 742 879 l 554 0 l 299 0 q 239 28 269 0 q 184 104 208 57 q 144 211 160 151 q 129 333 129 271 q 138 418 129 376 l 236 879 l 428 879 l 322 386 q 321 368 321 382 l 321 351 q 337 251 321 299 q 393 181 353 203 z "},"~":{"ha":647,"x_min":122,"x_max":711,"o":"m 381 347 l 358 479 l 282 347 l 122 347 l 236 532 l 453 532 l 475 400 l 553 532 l 711 532 l 597 347 l 381 347 z "},"":{"ha":219,"x_min":0,"x_max":0,"o":""},"€":{"ha":699,"x_min":100,"x_max":838,"o":"m 185 638 l 318 638 q 372 731 342 688 q 438 808 403 775 q 514 860 474 840 q 596 879 554 879 l 838 879 l 797 696 l 628 696 q 539 638 579 682 l 721 638 l 683 465 l 449 465 l 440 424 q 439 413 439 422 l 672 413 l 636 240 l 450 240 q 474 199 458 215 q 515 183 490 183 l 689 183 l 650 0 l 456 0 q 363 18 403 0 q 297 69 324 36 q 254 145 269 101 q 235 240 239 189 l 100 240 l 136 413 l 243 413 l 254 465 l 147 465 l 185 638 z "},"‚":{"ha":290,"x_min":26,"x_max":281,"o":"m 26 -106 l 88 183 l 281 183 l 243 8 q 215 -23 239 -4 q 160 -60 192 -42 q 92 -91 128 -78 q 26 -106 56 -104 z "},"ƒ":{"ha":592,"x_min":22,"x_max":731,"o":"m 315 347 l 529 347 l 568 531 l 354 531 l 389 696 l 690 696 l 731 879 l 236 879 l 236 875 l 113 293 q 99 238 108 272 q 78 165 90 203 q 52 92 67 128 q 22 32 38 56 l 213 -139 l 315 347 z "},"„":{"ha":532,"x_min":26,"x_max":522,"o":"m 268 -106 l 329 183 l 522 183 l 485 8 q 457 -23 481 -4 q 401 -60 433 -42 q 333 -91 369 -78 q 268 -106 297 -104 m 26 -106 l 88 183 l 281 183 l 243 8 q 215 -23 239 -4 q 160 -60 192 -42 q 92 -91 128 -78 q 26 -106 56 -104 z "},"…":{"ha":815,"x_min":49,"x_max":806,"o":"m 574 0 l 613 183 l 806 183 l 767 0 l 574 0 m 311 0 l 350 183 l 543 183 l 504 0 l 311 0 m 49 0 l 88 183 l 281 183 l 242 0 l 49 0 z "},"†":{"ha":549,"x_min":150,"x_max":642,"o":"m 190 665 l 321 665 l 367 879 l 558 879 l 513 665 l 642 665 l 603 482 l 474 482 l 433 293 q 425 250 429 276 q 417 194 421 224 q 412 135 414 165 q 410 78 410 104 l 410 53 q 410 44 410 50 q 413 32 411 39 l 150 -139 l 282 482 l 151 482 l 190 665 z "},"‡":{"ha":549,"x_min":94,"x_max":642,"o":"m 190 665 l 321 665 l 367 879 l 558 879 l 513 665 l 642 665 l 603 482 l 474 482 l 456 396 l 585 396 l 546 213 l 419 213 q 411 147 414 181 q 408 85 408 114 q 413 32 408 54 l 150 -139 l 225 213 l 94 213 l 133 396 l 264 396 l 282 482 l 151 482 l 190 665 z "},"ˆ":{"ha":519,"x_min":235,"x_max":657,"o":"m 614 1025 l 657 878 l 496 878 l 468 983 l 396 878 l 235 878 l 343 1025 l 614 1025 z "},"‰":{"ha":1239,"x_min":181,"x_max":1246,"o":"m 708 879 l 900 879 l 376 0 l 186 0 l 708 879 m 750 281 q 719 256 731 276 q 706 219 708 236 l 706 215 q 703 202 704 210 q 701 188 701 194 q 706 164 701 175 q 721 153 710 153 l 724 153 q 747 170 736 153 q 764 203 757 188 q 772 225 771 219 q 772 242 772 231 q 767 267 772 256 q 751 281 763 278 l 750 281 m 706 0 l 678 0 q 594 40 619 0 q 568 138 568 79 q 576 219 568 178 l 576 222 q 600 297 585 258 q 639 367 615 336 q 695 419 663 399 q 772 439 728 439 l 799 439 q 850 427 829 439 q 883 396 871 415 q 901 351 896 376 q 907 297 907 325 q 899 222 907 260 l 899 219 q 874 138 890 178 q 832 68 857 99 q 775 19 807 38 q 706 0 743 0 m 363 719 q 332 695 343 715 q 318 658 321 675 q 315 647 317 654 q 314 629 314 639 q 319 603 314 615 q 335 592 324 592 l 338 592 q 360 609 350 592 q 376 642 369 626 q 384 664 383 658 q 385 681 385 669 q 380 706 385 694 q 364 719 375 717 l 363 719 m 318 439 l 290 439 q 206 478 232 439 q 181 576 181 518 q 189 658 181 617 l 189 661 q 213 736 197 697 q 251 806 228 775 q 308 858 275 838 q 385 878 340 878 l 411 878 q 463 866 442 878 q 496 835 483 854 q 514 790 508 815 q 519 736 519 764 q 511 661 519 699 l 511 658 q 486 577 503 617 q 444 507 469 538 q 388 458 419 476 q 318 439 356 439 m 1089 281 q 1058 256 1069 276 q 1044 219 1047 236 l 1044 215 q 1042 202 1043 210 q 1040 188 1040 194 q 1044 164 1040 175 q 1060 153 1049 153 l 1063 153 q 1085 170 1075 153 q 1103 203 1096 188 q 1110 225 1110 219 q 1111 242 1111 231 q 1106 267 1111 256 q 1090 281 1101 278 l 1089 281 m 1044 0 l 1017 0 q 933 40 958 0 q 907 138 907 79 q 915 219 907 178 l 915 222 q 939 297 924 258 q 978 367 954 336 q 1034 419 1001 399 q 1111 439 1067 439 l 1138 439 q 1189 427 1168 439 q 1222 396 1210 415 q 1240 351 1235 376 q 1246 297 1246 325 q 1238 222 1246 260 l 1238 219 q 1213 138 1229 178 q 1171 68 1196 99 q 1114 19 1146 38 q 1044 0 1082 0 z "},"Š":{"ha":572,"x_min":49,"x_max":735,"o":"m 357 971 l 313 1118 l 474 1118 l 501 1013 l 574 1118 l 735 1118 l 628 971 l 357 971 m 343 183 l 211 688 q 210 697 210 689 l 210 708 q 221 783 210 732 q 260 850 229 821 q 325 879 292 879 l 711 879 l 671 696 l 418 696 l 546 193 q 547 178 547 190 l 547 164 q 545 131 547 149 q 540 97 543 114 q 513 44 533 65 q 467 11 493 22 q 445 1 457 3 q 426 0 433 0 l 49 0 l 88 183 l 343 183 z "},"‹":{"ha":244,"x_min":115,"x_max":336,"o":"m 174 588 l 336 663 l 303 501 l 186 451 l 281 401 l 247 240 l 115 317 l 174 588 z "},"Œ":{"ha":1067,"x_min":125,"x_max":1206,"o":"m 1018 0 l 349 0 q 247 23 289 0 q 177 85 204 46 q 138 178 150 125 q 125 292 125 231 q 142 439 125 364 l 143 446 q 191 597 158 519 q 269 736 224 674 q 370 839 314 799 q 489 879 426 879 l 1206 879 l 1165 696 l 864 696 l 829 531 l 1043 531 l 1004 347 l 790 347 l 756 183 l 1057 183 l 1018 0 m 339 453 q 333 405 336 435 q 329 340 329 375 q 333 283 329 311 q 345 233 336 256 q 369 197 354 211 q 408 183 385 183 l 563 183 l 671 696 l 521 696 q 455 660 485 686 q 401 599 425 633 q 362 525 378 564 q 339 453 346 486 z "},"Ž":{"ha":572,"x_min":54,"x_max":735,"o":"m 653 688 q 672 731 665 706 q 686 783 679 756 l 707 879 l 236 879 l 196 696 l 449 696 l 110 193 q 75 97 88 161 l 54 0 l 524 0 l 563 183 l 307 183 l 653 688 m 628 971 l 735 1118 l 574 1118 l 501 1013 l 474 1118 l 313 1118 l 357 971 l 628 971 z "},"‘":{"ha":290,"x_min":171,"x_max":429,"o":"m 429 881 l 364 578 l 171 578 l 211 767 q 239 798 215 779 q 294 835 263 817 q 363 866 326 853 q 429 881 400 879 z "},"’":{"ha":290,"x_min":171,"x_max":429,"o":"m 171 576 l 236 879 l 429 879 l 389 690 q 361 659 385 678 q 306 622 338 640 q 237 591 274 604 q 171 576 200 578 z "},"“":{"ha":533,"x_min":171,"x_max":672,"o":"m 429 881 l 364 578 l 171 578 l 211 767 q 239 798 215 779 q 294 835 263 817 q 363 866 326 853 q 429 881 400 879 m 672 881 l 607 578 l 414 578 l 454 767 q 482 798 458 779 q 538 835 506 817 q 606 866 569 853 q 672 881 643 879 z "},"”":{"ha":533,"x_min":171,"x_max":672,"o":"m 414 576 l 479 879 l 672 879 l 632 690 q 604 659 628 678 q 549 622 581 640 q 480 591 517 604 q 414 576 443 578 m 171 576 l 236 879 l 429 879 l 389 690 q 361 659 385 678 q 306 622 338 640 q 237 591 274 604 q 171 576 200 578 z "},"•":{"ha":740,"x_min":125,"x_max":803,"o":"m 400 0 l 346 0 q 246 23 288 0 q 177 85 204 46 q 138 176 150 124 q 125 289 125 229 q 142 439 125 361 l 143 446 q 189 595 158 518 q 267 735 219 672 q 381 839 315 799 q 535 879 447 879 l 588 879 q 689 856 647 879 q 756 794 731 833 q 792 705 781 756 q 803 599 803 654 q 798 522 803 561 q 786 446 793 483 l 785 439 q 733 277 767 356 q 651 137 700 199 q 540 38 603 75 q 400 0 476 0 z "},"–":{"ha":449,"x_min":122,"x_max":513,"o":"m 161 531 l 513 531 l 474 347 l 122 347 l 161 531 z "},"—":{"ha":606,"x_min":122,"x_max":669,"o":"m 161 531 l 669 531 l 631 347 l 122 347 l 161 531 z "},"˜":{"ha":654,"x_min":235,"x_max":824,"o":"m 496 878 l 468 983 l 396 878 l 235 878 l 343 1025 l 563 1025 l 590 919 l 663 1025 l 824 1025 l 715 878 l 496 878 z "},"™":{"ha":458,"x_min":242,"x_max":608,"o":"m 433 932 q 442 935 436 935 q 449 936 449 935 l 447 938 q 447 938 446 938 q 450 939 449 939 q 469 922 457 939 q 485 886 482 904 l 485 876 q 489 836 488 853 q 492 807 490 819 q 508 836 501 822 q 522 869 514 850 q 561 924 542 910 q 600 938 581 938 l 608 938 l 569 753 l 549 753 l 575 876 l 571 889 q 562 872 565 881 q 553 857 558 864 q 517 797 529 818 q 498 767 504 776 q 488 755 492 757 q 481 753 485 753 q 474 754 476 753 q 469 764 471 756 l 450 883 l 440 874 l 414 753 l 394 753 l 433 932 m 242 908 l 247 938 l 403 938 l 397 908 l 333 908 l 300 753 l 272 753 l 306 908 l 242 908 z "},"š":{"ha":572,"x_min":49,"x_max":735,"o":"m 357 971 l 313 1118 l 474 1118 l 501 1013 l 574 1118 l 735 1118 l 628 971 l 357 971 m 343 183 l 211 688 q 210 697 210 689 l 210 708 q 221 783 210 732 q 260 850 229 821 q 325 879 292 879 l 711 879 l 671 696 l 418 696 l 546 193 q 547 178 547 190 l 547 164 q 545 131 547 149 q 540 97 543 114 q 513 44 533 65 q 467 11 493 22 q 445 1 457 3 q 426 0 433 0 l 49 0 l 88 183 l 343 183 z "},"›":{"ha":244,"x_min":100,"x_max":321,"o":"m 321 588 l 189 663 l 156 501 l 250 451 l 133 401 l 100 240 l 263 317 l 321 588 z "},"œ":{"ha":1067,"x_min":125,"x_max":1206,"o":"m 1018 0 l 349 0 q 247 23 289 0 q 177 85 204 46 q 138 178 150 125 q 125 292 125 231 q 142 439 125 364 l 143 446 q 191 597 158 519 q 269 736 224 674 q 370 839 314 799 q 489 879 426 879 l 1206 879 l 1165 696 l 864 696 l 829 531 l 1043 531 l 1004 347 l 790 347 l 756 183 l 1057 183 l 1018 0 m 339 453 q 333 405 336 435 q 329 340 329 375 q 333 283 329 311 q 345 233 336 256 q 369 197 354 211 q 408 183 385 183 l 563 183 l 671 696 l 521 696 q 455 660 485 686 q 401 599 425 633 q 362 525 378 564 q 339 453 346 486 z "},"ž":{"ha":572,"x_min":54,"x_max":735,"o":"m 653 688 q 672 731 665 706 q 686 783 679 756 l 707 879 l 236 879 l 196 696 l 449 696 l 110 193 q 75 97 88 161 l 54 0 l 524 0 l 563 183 l 307 183 l 653 688 m 628 971 l 735 1118 l 574 1118 l 501 1013 l 474 1118 l 313 1118 l 357 971 l 628 971 z "},"Ÿ":{"ha":719,"x_min":199,"x_max":858,"o":"m 838 786 q 795 643 822 713 q 728 515 768 574 q 638 415 689 457 q 526 357 588 374 l 513 293 q 504 250 508 276 q 497 194 500 224 q 491 135 493 165 q 489 78 489 104 l 489 53 q 490 44 489 50 q 492 32 490 39 l 231 -139 l 336 361 q 274 401 300 375 q 231 463 247 428 q 206 542 214 499 q 199 635 199 586 q 215 786 199 708 l 236 879 l 431 879 l 413 800 q 403 744 408 781 q 399 668 399 707 q 402 617 399 642 q 414 574 406 593 q 436 542 422 554 q 471 531 450 531 l 474 531 q 539 564 510 531 q 590 642 568 597 q 626 731 611 686 q 646 800 640 776 l 664 879 l 858 879 l 838 786 m 353 961 l 385 1108 l 546 1108 l 514 961 l 353 961 m 807 1108 l 775 961 l 614 961 l 646 1108 l 807 1108 z "},"¡":{"ha":290,"x_min":49,"x_max":429,"o":"m 240 0 l 365 586 l 174 586 l 49 0 l 240 0 m 236 879 l 196 696 l 389 696 l 429 879 l 236 879 z "},"¢":{"ha":592,"x_min":126,"x_max":717,"o":"m 663 963 l 471 963 l 440 814 q 335 772 383 806 q 249 689 288 739 q 184 576 211 639 q 143 446 157 514 l 142 439 q 131 371 135 403 q 126 311 126 339 q 165 156 126 218 q 282 72 203 93 l 249 -86 l 440 -86 l 472 63 l 557 63 l 596 246 l 422 246 q 378 258 394 246 q 351 290 361 271 q 337 334 340 310 q 333 383 333 358 q 335 421 333 403 q 339 453 336 439 q 395 567 354 521 q 508 633 436 614 l 678 633 l 717 817 l 632 817 l 663 963 z "},"£":{"ha":638,"x_min":49,"x_max":631,"o":"m 156 503 l 129 378 l 272 378 q 169 186 196 306 l 169 181 l 88 181 l 49 0 l 589 0 l 628 181 l 411 181 q 402 197 404 188 q 400 208 400 206 q 399 221 399 211 l 399 235 q 399 247 399 240 q 401 260 400 253 q 448 336 413 310 q 533 376 483 363 l 571 374 l 599 504 l 558 504 q 497 535 521 515 q 474 592 474 556 q 478 619 474 604 q 499 672 483 639 q 506 683 501 675 q 521 699 511 692 l 592 699 l 631 879 l 444 879 q 385 854 425 879 q 311 775 346 829 q 290 731 299 751 q 278 693 281 710 q 269 613 269 649 q 297 503 269 547 l 156 503 z "},"¤":{"ha":719,"x_min":49,"x_max":858,"o":"m 671 0 l 476 0 l 493 79 q 499 113 496 94 q 504 156 501 132 q 410 133 461 133 l 369 133 q 281 157 321 133 q 267 113 272 133 q 260 79 263 92 l 243 0 l 49 0 l 68 93 q 122 260 88 181 q 208 401 157 339 q 209 408 208 404 q 211 419 210 413 l 221 461 q 224 474 222 468 q 226 482 225 479 q 199 639 199 557 q 215 786 199 708 l 236 879 l 431 879 l 413 800 q 406 766 410 786 q 401 722 403 746 q 501 744 444 744 l 540 744 q 625 722 590 744 q 638 766 632 746 q 646 800 643 786 l 664 879 l 858 879 l 838 786 q 783 617 818 699 q 694 474 747 536 l 694 471 q 693 458 694 461 l 690 443 l 681 407 q 710 251 710 340 q 690 93 710 186 l 671 0 m 489 617 q 441 592 463 611 q 403 549 419 574 q 376 498 386 525 q 361 449 365 471 q 356 416 358 436 q 353 372 353 396 q 356 332 353 351 q 365 297 358 313 q 383 271 371 281 q 411 261 394 261 l 419 261 q 468 284 446 261 q 507 338 490 307 q 534 401 524 369 q 549 449 544 432 q 554 507 554 469 q 542 576 554 543 q 496 617 529 608 l 489 617 z "},"¥":{"ha":719,"x_min":63,"x_max":858,"o":"m 838 786 l 858 879 l 664 879 l 646 800 q 626 731 640 776 q 590 642 611 686 q 539 564 568 597 q 474 531 510 531 l 471 531 q 436 542 450 531 q 414 573 422 554 q 403 616 406 592 q 400 667 400 640 q 405 744 400 707 q 413 800 410 781 l 431 879 l 236 879 l 215 786 q 199 635 199 708 q 206 542 199 586 q 231 463 214 499 q 274 401 247 428 q 336 361 300 375 l 336 360 l 147 360 l 113 199 l 301 199 l 286 124 l 97 124 l 63 -37 l 251 -37 l 210 -235 l 471 -64 q 468 -51 468 -50 q 467 -37 468 -40 l 640 -37 l 675 124 l 479 124 q 481 144 481 135 q 485 164 482 154 l 492 199 l 690 199 l 725 360 l 536 360 q 645 420 596 378 q 732 520 694 463 q 796 647 769 578 q 838 786 822 715 z "},"¦":{"ha":289,"x_min":-1,"x_max":476,"o":"m 476 1110 l 282 196 q 272 140 278 175 q 263 68 267 106 q 258 -6 260 31 q 261 -65 257 -42 l -1 -236 l 285 1110 l 476 1110 z "},"§":{"ha":719,"x_min":49,"x_max":858,"o":"m 369 133 q 281 157 321 133 q 267 113 272 133 q 260 79 263 92 l 243 0 l 49 0 l 68 93 q 122 260 88 181 q 208 401 157 339 q 209 408 208 404 q 211 419 210 413 l 217 443 q 249 548 228 494 q 306 645 271 601 q 388 717 340 689 q 501 744 436 744 l 540 744 q 625 722 590 744 q 638 766 632 746 q 646 800 643 786 l 664 879 l 858 879 l 838 786 q 783 617 818 699 q 694 474 747 536 l 694 471 q 693 458 694 461 l 689 439 q 652 326 676 381 q 593 228 628 271 q 512 160 558 186 q 410 133 465 133 l 369 133 m 489 617 q 441 592 463 611 q 403 549 419 574 q 376 498 386 525 q 361 449 365 471 q 356 416 358 436 q 353 372 353 396 q 356 332 353 351 q 365 297 358 313 q 383 271 371 281 q 411 261 394 261 l 419 261 q 468 284 446 261 q 507 338 490 307 q 534 401 524 369 q 549 449 544 432 q 554 507 554 469 q 542 576 554 543 q 496 617 529 608 l 489 617 z "},"¨":{"ha":519,"x_min":235,"x_max":689,"o":"m 235 878 l 267 1025 l 428 1025 l 396 878 l 235 878 m 689 1025 l 657 878 l 496 878 l 528 1025 l 689 1025 z "},"©":{"ha":349,"x_min":215,"x_max":479,"o":"m 375 942 q 431 926 403 942 q 467 878 463 903 q 474 817 479 846 q 440 754 467 789 q 418 731 429 739 q 392 713 407 722 l 385 708 q 338 694 354 697 q 322 692 322 692 q 261 708 290 692 q 241 729 249 719 q 225 754 233 739 q 222 817 215 775 q 310 926 238 888 q 345 938 331 933 q 375 942 360 942 m 371 922 q 268 869 310 922 q 251 843 257 856 q 243 817 246 831 q 246 767 238 790 q 275 726 253 744 q 309 715 294 717 q 331 713 324 713 q 381 726 354 713 q 426 767 406 740 q 453 817 447 793 l 454 822 q 453 858 458 840 q 436 890 447 876 q 409 913 425 904 q 375 922 393 922 l 371 922 m 383 797 l 401 792 q 333 744 381 744 q 282 817 268 744 q 364 888 296 888 q 411 849 410 888 l 390 844 q 360 869 386 869 q 304 817 315 869 q 336 767 293 767 q 383 797 369 767 z "},"ª":{"ha":617,"x_min":49,"x_max":675,"o":"m 344 488 l 481 488 l 481 540 q 471 602 481 572 q 447 656 461 632 q 388 580 415 624 q 344 493 360 536 l 344 488 m 240 0 l 49 0 l 147 461 q 203 606 161 532 q 299 741 246 681 q 404 840 351 801 q 493 879 457 879 l 499 879 q 560 850 529 879 q 617 774 592 821 q 659 667 643 728 q 675 544 675 607 q 667 461 675 500 l 568 0 l 376 0 l 442 304 l 306 304 l 240 0 z "},"«":{"ha":438,"x_min":115,"x_max":529,"o":"m 367 588 l 529 663 l 496 501 l 379 451 l 474 401 l 440 240 l 308 317 l 367 588 m 174 588 l 336 663 l 303 501 l 186 451 l 281 401 l 247 240 l 115 317 l 174 588 z "},"¬":{"ha":606,"x_min":122,"x_max":669,"o":"m 161 531 l 669 531 l 596 185 l 413 185 l 447 347 l 122 347 l 161 531 z "},"­":{"ha":364,"x_min":122,"x_max":428,"o":"m 161 531 l 428 531 l 389 347 l 122 347 l 161 531 z "},"®":{"ha":349,"x_min":214,"x_max":481,"o":"m 375 940 q 429 924 408 940 q 469 877 457 908 q 474 815 481 846 q 440 753 467 788 q 385 707 424 725 q 340 692 357 694 q 322 690 322 690 q 261 707 283 690 q 225 753 240 724 q 222 815 214 781 q 233 847 226 835 q 250 874 239 858 l 251 876 q 308 924 274 906 q 375 940 342 940 m 371 919 q 269 868 311 919 q 243 815 247 842 l 243 801 q 244 785 243 794 q 246 764 244 775 q 275 725 251 746 q 308 715 294 717 q 325 713 321 713 l 326 713 q 352 715 339 713 q 381 725 365 718 q 407 744 396 735 q 426 764 418 754 q 446 799 439 783 q 453 815 453 815 l 453 821 q 436 889 460 858 q 375 919 413 919 l 371 919 m 279 746 l 308 881 l 353 881 q 386 875 382 881 q 393 870 390 872 q 399 865 396 868 q 403 844 404 854 q 354 807 396 808 q 368 794 365 801 q 379 772 371 788 l 390 746 l 363 746 l 358 768 q 347 789 351 782 q 340 797 342 796 q 325 803 336 803 l 313 803 l 300 746 l 279 746 m 317 821 l 342 821 q 376 834 368 818 q 371 861 385 850 q 349 863 369 863 l 325 863 l 317 821 z "},"¯":{"ha":614,"x_min":228,"x_max":769,"o":"m 253 963 l 769 963 l 744 840 l 228 840 l 253 963 z "},"°":{"ha":258,"x_min":235,"x_max":428,"o":"m 267 1025 l 235 878 l 396 878 l 428 1025 l 267 1025 m 301 931 l 311 972 l 360 972 l 350 931 l 301 931 z "},"±":{"ha":606,"x_min":49,"x_max":688,"o":"m 560 775 l 525 613 l 688 613 l 649 429 l 486 429 l 451 267 l 268 267 l 303 429 l 140 429 l 179 613 l 342 613 l 376 775 l 560 775 m 596 183 l 557 0 l 49 0 l 88 183 l 596 183 z "},"²":{"ha":346,"x_min":157,"x_max":489,"o":"m 363 657 l 472 849 q 482 871 479 858 q 488 897 485 883 q 489 908 489 899 q 479 935 489 924 q 454 946 469 946 l 250 946 l 218 796 l 290 796 l 183 604 q 167 556 174 582 l 157 507 l 406 507 l 438 657 l 363 657 z "},"³":{"ha":603,"x_min":49,"x_max":742,"o":"m 288 181 l 283 193 l 429 879 l 236 879 l 49 0 l 304 0 q 391 39 339 0 q 494 138 443 78 q 586 273 544 199 q 643 418 628 347 l 742 879 l 550 879 l 444 386 q 418 326 433 357 q 383 266 403 294 q 340 215 364 238 q 288 181 317 193 z "},"´":{"ha":331,"x_min":235,"x_max":500,"o":"m 385 878 l 500 1025 l 333 1025 l 235 878 l 385 878 z "},"µ":{"ha":719,"x_min":7,"x_max":858,"o":"m 200 -197 l 246 22 q 346 0 285 0 l 378 0 q 517 38 454 0 q 630 137 581 75 q 713 277 679 199 q 764 439 746 356 l 858 879 l 664 879 l 572 453 q 552 384 567 429 q 516 294 538 339 q 465 217 494 250 q 400 183 436 183 l 397 183 q 363 195 376 183 q 340 226 349 207 q 328 270 332 246 q 325 321 325 294 q 330 397 325 360 q 339 453 335 433 l 431 879 l 236 879 l 7 -197 l 200 -197 z "},"¶":{"ha":1700,"x_min":144,"x_max":1756,"o":"m 1750 463 q 1749 460 1750 461 q 1747 458 1747 458 l 1718 418 l 1621 418 l 1671 343 q 1672 339 1671 342 q 1671 333 1672 336 l 1669 326 q 1626 283 1661 292 l 1524 303 l 1489 189 q 1444 168 1474 168 q 1397 177 1421 168 q 1340 206 1372 186 l 1218 101 l 1161 90 l 1110 150 l 889 54 l 857 63 l 869 122 l 594 82 l 568 101 l 589 150 l 317 171 l 324 206 l 364 238 l 200 267 q 175 303 168 267 l 253 350 l 146 400 l 144 449 l 264 468 l 215 535 l 238 593 l 360 581 q 438 717 389 717 l 443 717 l 554 678 q 638 754 603 726 q 704 793 674 782 l 788 736 l 996 821 l 1033 793 l 1018 764 l 1025 754 l 1246 793 l 1318 783 l 1296 726 l 1549 726 l 1567 707 q 1513 653 1556 657 l 1715 601 l 1714 596 l 1713 590 q 1624 535 1701 542 q 1750 463 1756 489 m 1714 449 l 1708 468 l 1550 543 l 1665 572 l 1678 572 l 1669 593 l 1433 640 l 1532 696 l 1246 696 l 1281 764 l 997 726 l 1000 783 l 979 793 l 769 707 l 699 764 l 560 653 q 535 648 542 650 q 533 646 529 646 q 436 688 496 646 l 389 554 l 254 563 l 254 524 l 310 438 l 174 429 l 335 343 l 206 294 l 450 244 l 354 189 l 649 178 l 600 114 l 876 160 l 904 122 l 883 82 l 1115 178 l 1200 122 l 1329 238 l 1458 197 l 1497 333 l 1633 311 q 1636 322 1635 319 q 1638 324 1638 324 q 1576 438 1642 350 l 1714 449 m 1519 515 l 1471 392 l 1444 396 l 1476 524 l 1519 515 m 1467 338 l 1429 311 l 1413 332 l 1439 347 l 1467 338 m 1386 347 q 1290 432 1344 347 l 1272 347 l 1243 346 l 1276 515 l 1360 407 l 1394 524 l 1422 517 l 1386 347 m 1213 347 l 1188 357 q 1153 396 1182 396 q 1099 357 1128 396 l 1060 357 q 1171 524 1088 440 q 1199 528 1179 528 q 1236 474 1232 528 l 1213 347 m 1072 524 l 1029 358 l 981 346 l 1035 519 l 1072 524 m 944 342 q 849 424 903 342 l 832 343 l 801 338 l 832 508 l 918 400 l 947 519 l 981 508 l 944 342 m 801 461 q 703 342 756 342 q 672 338 686 338 q 614 368 619 338 q 718 517 638 474 q 723 517 722 517 q 724 518 724 518 l 733 518 q 801 461 797 518 m 635 522 l 621 481 q 611 483 614 482 q 611 483 608 483 l 601 483 q 547 461 578 483 q 503 393 510 425 q 538 358 497 358 q 557 359 549 358 q 572 361 565 360 l 569 335 q 547 329 556 332 q 531 326 538 326 q 471 400 475 326 q 472 413 469 401 l 475 422 q 635 522 492 501 m 474 519 l 429 350 l 386 338 l 440 511 l 474 519 m 1193 432 l 1183 488 l 1132 432 l 1193 432 m 763 435 q 760 456 764 449 q 728 476 753 476 q 663 424 696 476 l 660 413 q 682 372 651 372 q 701 375 689 372 q 733 385 714 378 q 753 411 746 399 q 763 435 760 424 z "},"·":{"ha":290,"x_min":122,"x_max":354,"o":"m 122 347 l 161 531 l 354 531 l 315 347 l 122 347 z "},"¸":{"ha":240,"x_min":-62,"x_max":192,"o":"m 192 0 l 143 -226 l -62 -226 l -32 -83 l 31 -83 l 49 0 l 192 0 z "},"¹":{"ha":293,"x_min":215,"x_max":446,"o":"m 217 790 l 281 790 l 260 693 q 258 686 260 688 q 242 632 253 665 q 215 581 231 599 l 353 507 l 446 946 l 250 946 l 217 790 z "},"º":{"ha":419,"x_min":194,"x_max":535,"o":"m 378 788 q 347 763 358 783 q 332 726 336 743 q 330 713 331 719 q 329 699 329 706 q 333 672 329 685 q 349 660 338 660 l 351 660 q 367 668 360 660 q 381 688 375 676 q 390 710 386 699 q 396 726 394 721 q 398 740 397 733 q 399 751 399 746 q 394 774 399 764 q 379 788 390 785 l 378 788 m 333 507 l 306 507 q 220 549 246 507 q 194 653 194 590 q 203 726 194 689 l 204 729 q 226 804 211 765 q 265 874 242 843 q 322 926 289 906 q 400 946 356 946 l 426 946 q 478 934 457 946 q 511 903 499 922 q 529 858 524 883 q 535 804 535 832 q 526 729 535 767 l 525 726 q 500 645 517 685 q 459 575 483 606 q 403 526 435 544 q 333 507 372 507 z "},"»":{"ha":438,"x_min":100,"x_max":514,"o":"m 321 588 l 189 663 l 156 501 l 250 451 l 133 401 l 100 240 l 263 317 l 321 588 m 514 588 l 382 663 l 349 501 l 443 451 l 326 401 l 293 240 l 456 317 l 514 588 z "},"¼":{"ha":1633,"x_min":140,"x_max":1681,"o":"m 1681 449 l 1675 468 l 1517 543 l 1632 572 l 1644 572 l 1636 593 l 1400 640 l 1499 696 l 1213 696 l 1247 764 l 964 726 l 967 783 l 946 793 l 736 707 l 665 764 l 526 653 q 502 648 508 650 q 500 646 496 646 q 403 688 463 646 l 356 554 l 221 563 l 221 524 l 276 438 l 140 429 l 301 343 l 172 294 l 417 244 l 321 189 l 615 178 l 567 114 l 843 160 l 871 122 l 850 82 l 1082 178 l 1167 122 l 1296 238 l 1425 197 l 1464 333 l 1600 311 q 1603 322 1601 319 q 1604 324 1604 324 q 1543 438 1608 350 l 1681 449 m 1486 515 l 1438 392 l 1411 396 l 1443 524 l 1486 515 m 1433 338 l 1396 311 l 1379 332 l 1406 347 l 1433 338 m 1353 347 q 1257 432 1311 347 l 1239 347 l 1210 346 l 1243 515 l 1326 407 l 1361 524 l 1389 517 l 1353 347 m 1179 347 l 1154 357 q 1119 396 1149 396 q 1065 357 1094 396 l 1026 357 q 1138 524 1054 440 q 1165 528 1146 528 q 1203 474 1199 528 l 1179 347 m 1039 524 l 996 358 l 947 346 l 1001 519 l 1039 524 m 911 342 q 815 424 869 342 l 799 343 l 768 338 l 799 508 l 885 400 l 914 519 l 947 508 l 911 342 m 768 461 q 669 342 722 342 q 639 338 653 338 q 581 368 586 338 q 685 517 604 474 q 690 517 689 517 q 690 518 690 518 l 700 518 q 768 461 764 518 m 601 522 l 588 481 q 578 483 581 482 q 578 483 575 483 l 568 483 q 514 461 544 483 q 469 393 476 425 q 504 358 464 358 q 524 359 515 358 q 539 361 532 360 l 536 335 q 513 329 522 332 q 497 326 504 326 q 438 400 442 326 q 439 413 436 401 l 442 422 q 601 522 458 501 m 440 519 l 396 350 l 353 338 l 407 511 l 440 519 m 1160 432 l 1150 488 l 1099 432 l 1160 432 m 729 435 q 726 456 731 449 q 694 476 719 476 q 629 424 663 476 l 626 413 q 649 372 618 372 q 668 375 656 372 q 700 385 681 378 q 719 411 713 399 q 729 435 726 424 z "},"½":{"ha":821,"x_min":124,"x_max":857,"o":"m 124 0 l 314 0 l 838 879 l 646 879 l 124 0 m 729 150 l 839 342 q 849 364 846 351 q 856 390 853 376 q 857 400 857 392 q 847 428 857 417 q 821 439 836 439 l 617 439 l 585 289 l 657 289 l 551 97 q 541 74 546 86 q 533 49 536 61 l 524 0 l 772 0 l 804 150 l 729 150 m 203 722 l 267 722 l 246 625 q 245 623 246 625 q 243 617 244 621 l 242 611 q 224 558 235 589 q 200 513 214 528 l 338 439 l 431 878 l 235 878 l 203 722 z "},"¾":{"ha":1193,"x_min":121,"x_max":1254,"o":"m 1254 515 l 1206 392 l 1179 396 l 1211 524 l 1254 515 m 1201 338 l 1164 311 l 1147 332 l 1174 347 l 1201 338 m 1121 347 q 1025 432 1079 347 l 1007 347 l 978 346 l 1011 515 l 1094 407 l 1129 524 l 1157 517 l 1121 347 m 947 347 l 922 357 q 888 396 917 396 q 833 357 863 396 l 794 357 q 906 524 822 440 q 933 528 914 528 q 971 474 967 528 l 947 347 m 807 524 l 764 358 l 715 346 l 769 519 l 807 524 m 679 342 q 583 424 638 342 l 567 343 l 536 338 l 567 508 l 653 400 l 682 519 l 715 508 l 679 342 m 536 461 q 438 342 490 342 q 407 338 421 338 q 349 368 354 338 q 453 517 372 474 q 458 517 457 517 q 458 518 458 518 l 468 518 q 536 461 532 518 m 369 522 l 356 481 q 346 483 349 482 q 346 483 343 483 l 336 483 q 282 461 313 483 q 238 393 244 425 q 272 358 232 358 q 292 359 283 358 q 307 361 300 360 l 304 335 q 281 329 290 332 q 265 326 272 326 q 206 400 210 326 q 207 413 204 401 l 210 422 q 369 522 226 501 m 208 519 l 164 350 l 121 338 l 175 511 l 208 519 m 928 432 l 918 488 l 867 432 l 928 432 m 497 435 q 494 456 499 449 q 463 476 488 476 q 397 424 431 476 l 394 413 q 417 372 386 372 q 436 375 424 372 q 468 385 449 378 q 488 411 481 399 q 497 435 494 424 z "},"¿":{"ha":592,"x_min":85,"x_max":640,"o":"m 482 375 q 516 394 504 382 q 543 422 528 406 l 578 586 l 386 586 l 364 486 q 188 390 260 458 q 90 200 115 321 l 88 186 q 85 167 85 172 l 85 146 l 85 125 q 86 104 85 108 q 102 57 92 76 q 126 25 113 38 q 152 6 139 13 q 175 0 165 0 l 543 0 l 582 181 l 329 181 q 320 196 322 188 q 318 207 318 204 q 317 221 317 210 l 317 235 q 317 247 317 240 q 319 260 318 253 q 342 303 325 285 q 382 335 358 321 q 432 358 406 349 q 482 375 458 368 m 640 879 l 447 879 l 407 696 l 600 696 l 640 879 z "},"À":{"ha":603,"x_min":19,"x_max":742,"o":"m 453 961 l 401 1108 l 568 1108 l 603 961 l 453 961 m 19 -139 l 147 461 q 183 578 158 515 q 246 699 208 640 q 331 803 283 757 q 438 871 379 850 q 459 876 446 874 q 475 879 472 879 l 742 879 l 554 0 l 361 0 l 426 306 l 306 306 l 300 293 q 294 253 297 276 q 287 202 290 229 q 281 147 283 175 q 278 92 278 118 q 282 32 278 54 l 19 -139 m 503 699 q 449 664 474 686 q 406 614 425 642 q 371 555 386 586 q 344 493 356 524 l 346 489 l 465 489 l 507 688 l 503 699 z "},"Á":{"ha":603,"x_min":19,"x_max":742,"o":"m 693 1108 l 578 961 l 428 961 l 526 1108 l 693 1108 m 19 -139 l 147 461 q 183 578 158 515 q 246 699 208 640 q 331 803 283 757 q 438 871 379 850 q 459 876 446 874 q 475 879 472 879 l 742 879 l 554 0 l 361 0 l 426 306 l 306 306 l 300 293 q 294 253 297 276 q 287 202 290 229 q 281 147 283 175 q 278 92 278 118 q 282 32 278 54 l 19 -139 m 503 699 q 449 664 474 686 q 406 614 425 642 q 371 555 386 586 q 344 493 356 524 l 346 489 l 465 489 l 507 688 l 503 699 z "},"Â":{"ha":603,"x_min":19,"x_max":756,"o":"m 19 -139 l 147 461 q 183 578 158 515 q 246 699 208 640 q 331 803 283 757 q 438 871 379 850 q 459 876 446 874 q 475 879 472 879 l 742 879 l 554 0 l 361 0 l 426 306 l 306 306 l 300 293 q 294 253 297 276 q 287 202 290 229 q 281 147 283 175 q 278 92 278 118 q 282 32 278 54 l 19 -139 m 503 699 q 449 664 474 686 q 406 614 425 642 q 371 555 386 586 q 344 493 356 524 l 346 489 l 465 489 l 507 688 l 503 699 m 713 1108 l 756 961 l 594 961 l 567 1067 l 494 961 l 333 961 l 442 1108 l 713 1108 z "},"Ã":{"ha":603,"x_min":19,"x_max":844,"o":"m 19 -139 l 147 461 q 183 578 158 515 q 246 699 208 640 q 331 803 283 757 q 438 871 379 850 q 459 876 446 874 q 475 879 472 879 l 742 879 l 554 0 l 361 0 l 426 306 l 306 306 l 300 293 q 294 253 297 276 q 287 202 290 229 q 281 147 283 175 q 278 92 278 118 q 282 32 278 54 l 19 -139 m 503 699 q 449 664 474 686 q 406 614 425 642 q 371 555 386 586 q 344 493 356 524 l 346 489 l 465 489 l 507 688 l 503 699 m 517 961 l 489 1067 l 417 961 l 256 961 l 364 1108 l 583 1108 l 610 1003 l 683 1108 l 844 1108 l 736 961 l 517 961 z "},"Ä":{"ha":603,"x_min":19,"x_max":790,"o":"m 336 961 l 368 1108 l 529 1108 l 497 961 l 336 961 m 790 1108 l 758 961 l 597 961 l 629 1108 l 790 1108 m 19 -139 l 147 461 q 183 578 158 515 q 246 699 208 640 q 331 803 283 757 q 438 871 379 850 q 459 876 446 874 q 475 879 472 879 l 742 879 l 554 0 l 361 0 l 426 306 l 306 306 l 300 293 q 294 253 297 276 q 287 202 290 229 q 281 147 283 175 q 278 92 278 118 q 282 32 278 54 l 19 -139 m 503 699 q 449 664 474 686 q 406 614 425 642 q 371 555 386 586 q 344 493 356 524 l 346 489 l 465 489 l 507 688 l 503 699 z "},"Å":{"ha":603,"x_min":19,"x_max":742,"o":"m 504 1108 l 472 961 l 633 961 l 665 1108 l 504 1108 m 503 699 l 507 688 l 465 489 l 346 489 l 344 493 q 371 555 356 524 q 406 614 386 586 q 449 664 425 642 q 503 699 474 686 m 147 461 l 19 -139 l 282 32 q 278 92 278 54 q 281 147 278 118 q 287 202 283 175 q 294 253 290 229 q 300 293 297 276 l 306 306 l 426 306 l 361 0 l 554 0 l 742 879 l 475 879 q 459 876 472 879 q 438 871 446 874 q 331 803 379 850 q 246 699 283 757 q 183 578 208 640 q 147 461 158 515 m 539 1014 l 549 1056 l 597 1056 l 588 1014 l 539 1014 z "},"Æ":{"ha":904,"x_min":19,"x_max":1043,"o":"m 19 -139 l 147 461 q 183 578 158 515 q 246 699 208 640 q 331 803 283 757 q 438 871 379 850 q 459 876 446 874 q 475 879 472 879 l 1043 879 l 1003 696 l 701 696 l 667 531 l 881 531 l 842 347 l 628 347 l 593 183 l 894 183 l 856 0 l 361 0 l 426 306 l 306 306 l 300 293 q 294 253 297 276 q 287 202 290 229 q 281 147 283 175 q 278 92 278 118 q 282 32 278 54 l 19 -139 m 503 699 q 449 664 474 686 q 406 614 425 642 q 371 555 386 586 q 344 493 356 524 l 346 489 l 465 489 l 507 688 l 503 699 z "},"Ç":{"ha":590,"x_min":124,"x_max":729,"o":"m 689 696 l 519 696 q 453 660 483 686 q 401 599 424 633 q 362 525 378 564 q 339 453 346 486 q 332 404 336 435 q 328 339 328 374 q 331 283 328 311 q 344 233 335 256 q 368 197 353 211 q 407 183 383 183 l 581 183 l 542 0 l 406 0 l 357 -226 l 151 -226 l 182 -83 l 244 -83 l 265 14 q 158 118 192 43 q 124 290 124 193 q 140 439 124 364 l 142 446 q 190 597 157 519 q 267 736 222 674 q 369 839 313 799 q 488 879 425 879 l 729 879 l 689 696 z "},"È":{"ha":592,"x_min":49,"x_max":731,"o":"m 453 961 l 401 1108 l 568 1108 l 603 961 l 453 961 m 49 0 l 236 879 l 731 879 l 690 696 l 389 696 l 354 531 l 568 531 l 529 347 l 315 347 l 281 183 l 582 183 l 543 0 l 49 0 z "},"É":{"ha":592,"x_min":49,"x_max":731,"o":"m 663 1108 l 547 961 l 397 961 l 496 1108 l 663 1108 m 49 0 l 236 879 l 731 879 l 690 696 l 389 696 l 354 531 l 568 531 l 529 347 l 315 347 l 281 183 l 582 183 l 543 0 l 49 0 z "},"Ê":{"ha":592,"x_min":49,"x_max":731,"o":"m 668 1108 l 711 961 l 550 961 l 522 1067 l 450 961 l 289 961 l 397 1108 l 668 1108 m 49 0 l 236 879 l 731 879 l 690 696 l 389 696 l 354 531 l 568 531 l 529 347 l 315 347 l 281 183 l 582 183 l 543 0 l 49 0 z "},"Ë":{"ha":592,"x_min":49,"x_max":743,"o":"m 289 961 l 321 1108 l 482 1108 l 450 961 l 289 961 m 743 1108 l 711 961 l 550 961 l 582 1108 l 743 1108 m 49 0 l 236 879 l 731 879 l 690 696 l 389 696 l 354 531 l 568 531 l 529 347 l 315 347 l 281 183 l 582 183 l 543 0 l 49 0 z "},"Ì":{"ha":290,"x_min":19,"x_max":465,"o":"m 315 961 l 264 1108 l 431 1108 l 465 961 l 315 961 m 428 879 l 303 293 q 294 251 299 276 q 287 197 290 226 q 281 138 283 168 q 279 81 279 107 l 279 54 q 280 44 279 50 q 282 32 281 39 l 19 -139 l 236 879 l 428 879 z "},"Í":{"ha":290,"x_min":19,"x_max":497,"o":"m 497 1108 l 382 961 l 232 961 l 331 1108 l 497 1108 m 428 879 l 303 293 q 294 251 299 276 q 287 197 290 226 q 281 138 283 168 q 279 81 279 107 l 279 54 q 280 44 279 50 q 282 32 281 39 l 19 -139 l 236 879 l 428 879 z "},"Î":{"ha":290,"x_min":19,"x_max":561,"o":"m 518 1108 l 561 961 l 400 961 l 372 1067 l 300 961 l 139 961 l 247 1108 l 518 1108 m 428 879 l 303 293 q 294 251 299 276 q 287 197 290 226 q 281 138 283 168 q 279 81 279 107 l 279 54 q 280 44 279 50 q 282 32 281 39 l 19 -139 l 236 879 l 428 879 z "},"Ï":{"ha":290,"x_min":19,"x_max":593,"o":"m 139 961 l 171 1108 l 332 1108 l 300 961 l 139 961 m 593 1108 l 561 961 l 400 961 l 432 1108 l 593 1108 m 428 879 l 303 293 q 294 251 299 276 q 287 197 290 226 q 281 138 283 168 q 279 81 279 107 l 279 54 q 280 44 279 50 q 282 32 281 39 l 19 -139 l 236 879 l 428 879 z "},"Ð":{"ha":731,"x_min":125,"x_max":796,"o":"m 164 540 l 243 540 l 317 889 l 571 889 q 696 851 647 889 q 769 752 744 814 q 794 612 793 690 q 778 450 796 533 l 776 443 q 728 292 761 369 q 649 153 694 215 q 547 50 603 90 q 431 10 490 10 l 129 10 l 204 357 l 125 357 l 164 540 m 361 194 l 399 194 q 464 229 433 203 q 518 290 494 256 q 558 364 542 325 q 581 436 574 403 q 590 506 586 461 q 587 596 593 551 q 562 673 581 640 q 506 706 543 706 l 469 706 l 435 540 l 515 540 l 476 357 l 396 357 l 361 194 z "},"Ñ":{"ha":639,"x_min":49,"x_max":833,"o":"m 506 961 l 478 1067 l 406 961 l 244 961 l 353 1108 l 572 1108 l 599 1003 l 672 1108 l 833 1108 l 725 961 l 506 961 m 49 0 l 236 879 l 426 879 l 540 668 l 586 879 l 778 879 l 590 0 l 399 0 l 489 424 l 376 633 l 242 0 l 49 0 z "},"Ò":{"ha":738,"x_min":124,"x_max":801,"o":"m 525 961 l 474 1108 l 640 1108 l 675 961 l 525 961 m 399 0 l 344 0 q 244 23 286 0 q 176 85 203 46 q 136 176 149 124 q 124 289 124 229 q 140 439 124 361 l 142 446 q 188 595 157 518 q 266 735 218 672 q 380 839 314 799 q 533 879 446 879 l 586 879 q 688 856 646 879 q 754 794 729 833 q 790 705 779 756 q 801 599 801 654 q 797 522 801 561 q 785 446 792 483 l 783 439 q 732 277 765 356 q 650 137 699 199 q 538 38 601 75 q 399 0 475 0 m 515 696 q 451 661 481 688 q 398 599 421 635 q 360 525 375 564 q 339 453 344 486 q 331 399 335 433 q 326 329 326 365 q 330 276 326 301 q 342 229 333 250 q 365 196 350 208 q 403 183 379 183 l 414 183 q 480 217 449 183 q 535 294 511 250 q 574 384 558 339 q 593 453 589 429 q 601 544 601 494 q 598 595 601 571 q 585 640 594 619 q 562 676 576 661 q 525 696 547 690 l 515 696 z "},"Ó":{"ha":738,"x_min":124,"x_max":801,"o":"m 735 1108 l 619 961 l 469 961 l 568 1108 l 735 1108 m 399 0 l 344 0 q 244 23 286 0 q 176 85 203 46 q 136 176 149 124 q 124 289 124 229 q 140 439 124 361 l 142 446 q 188 595 157 518 q 266 735 218 672 q 380 839 314 799 q 533 879 446 879 l 586 879 q 688 856 646 879 q 754 794 729 833 q 790 705 779 756 q 801 599 801 654 q 797 522 801 561 q 785 446 792 483 l 783 439 q 732 277 765 356 q 650 137 699 199 q 538 38 601 75 q 399 0 475 0 m 515 696 q 451 661 481 688 q 398 599 421 635 q 360 525 375 564 q 339 453 344 486 q 331 399 335 433 q 326 329 326 365 q 330 276 326 301 q 342 229 333 250 q 365 196 350 208 q 403 183 379 183 l 414 183 q 480 217 449 183 q 535 294 511 250 q 574 384 558 339 q 593 453 589 429 q 601 544 601 494 q 598 595 601 571 q 585 640 594 619 q 562 676 576 661 q 525 696 547 690 l 515 696 z "},"Ô":{"ha":738,"x_min":124,"x_max":801,"o":"m 740 1108 l 783 961 l 622 961 l 594 1067 l 522 961 l 361 961 l 469 1108 l 740 1108 m 399 0 l 344 0 q 244 23 286 0 q 176 85 203 46 q 136 176 149 124 q 124 289 124 229 q 140 439 124 361 l 142 446 q 188 595 157 518 q 266 735 218 672 q 380 839 314 799 q 533 879 446 879 l 586 879 q 688 856 646 879 q 754 794 729 833 q 790 705 779 756 q 801 599 801 654 q 797 522 801 561 q 785 446 792 483 l 783 439 q 732 277 765 356 q 650 137 699 199 q 538 38 601 75 q 399 0 475 0 m 515 696 q 451 661 481 688 q 398 599 421 635 q 360 525 375 564 q 339 453 344 486 q 331 399 335 433 q 326 329 326 365 q 330 276 326 301 q 342 229 333 250 q 365 196 350 208 q 403 183 379 183 l 414 183 q 480 217 449 183 q 535 294 511 250 q 574 384 558 339 q 593 453 589 429 q 601 544 601 494 q 598 595 601 571 q 585 640 594 619 q 562 676 576 661 q 525 696 547 690 l 515 696 z "},"Õ":{"ha":738,"x_min":124,"x_max":883,"o":"m 556 961 l 528 1067 l 456 961 l 294 961 l 403 1108 l 622 1108 l 649 1003 l 722 1108 l 883 1108 l 775 961 l 556 961 m 399 0 l 344 0 q 244 23 286 0 q 176 85 203 46 q 136 176 149 124 q 124 289 124 229 q 140 439 124 361 l 142 446 q 188 595 157 518 q 266 735 218 672 q 380 839 314 799 q 533 879 446 879 l 586 879 q 688 856 646 879 q 754 794 729 833 q 790 705 779 756 q 801 599 801 654 q 797 522 801 561 q 785 446 792 483 l 783 439 q 732 277 765 356 q 650 137 699 199 q 538 38 601 75 q 399 0 475 0 m 515 696 q 451 661 481 688 q 398 599 421 635 q 360 525 375 564 q 339 453 344 486 q 331 399 335 433 q 326 329 326 365 q 330 276 326 301 q 342 229 333 250 q 365 196 350 208 q 403 183 379 183 l 414 183 q 480 217 449 183 q 535 294 511 250 q 574 384 558 339 q 593 453 589 429 q 601 544 601 494 q 598 595 601 571 q 585 640 594 619 q 562 676 576 661 q 525 696 547 690 l 515 696 z "},"Ö":{"ha":738,"x_min":124,"x_max":815,"o":"m 361 961 l 393 1108 l 554 1108 l 522 961 l 361 961 m 815 1108 l 783 961 l 622 961 l 654 1108 l 815 1108 m 399 0 l 344 0 q 244 23 286 0 q 176 85 203 46 q 136 176 149 124 q 124 289 124 229 q 140 439 124 361 l 142 446 q 188 595 157 518 q 266 735 218 672 q 380 839 314 799 q 533 879 446 879 l 586 879 q 688 856 646 879 q 754 794 729 833 q 790 705 779 756 q 801 599 801 654 q 797 522 801 561 q 785 446 792 483 l 783 439 q 732 277 765 356 q 650 137 699 199 q 538 38 601 75 q 399 0 475 0 m 515 696 q 451 661 481 688 q 398 599 421 635 q 360 525 375 564 q 339 453 344 486 q 331 399 335 433 q 326 329 326 365 q 330 276 326 301 q 342 229 333 250 q 365 196 350 208 q 403 183 379 183 l 414 183 q 480 217 449 183 q 535 294 511 250 q 574 384 558 339 q 593 453 589 429 q 601 544 601 494 q 598 595 601 571 q 585 640 594 619 q 562 676 576 661 q 525 696 547 690 l 515 696 z "},"×":{"ha":586,"x_min":118,"x_max":656,"o":"m 324 683 l 414 568 l 554 683 l 656 554 l 515 439 l 607 324 l 450 194 l 358 310 l 219 194 l 118 324 l 257 439 l 167 554 l 324 683 z "},"Ø":{"ha":738,"x_min":108,"x_max":822,"o":"m 108 0 l 167 97 q 134 185 144 136 q 124 289 124 233 q 140 439 124 361 l 142 446 q 188 595 157 518 q 266 735 218 672 q 380 839 314 799 q 533 879 446 879 l 822 879 l 761 779 q 792 692 782 740 q 801 593 801 644 q 785 446 801 518 l 783 439 q 732 277 765 356 q 650 137 699 199 q 538 38 601 75 q 399 0 475 0 l 108 0 m 515 696 q 450 661 479 688 q 398 599 421 635 q 360 525 375 564 q 338 453 344 486 q 332 416 335 438 q 326 368 329 394 l 521 696 l 515 696 m 600 507 l 407 183 l 414 183 q 480 217 449 183 q 534 294 511 250 q 572 384 557 339 q 592 453 588 429 q 600 507 597 478 z "},"Ù":{"ha":719,"x_min":125,"x_max":858,"o":"m 378 0 q 517 38 454 0 q 630 137 581 75 q 713 277 679 199 q 764 439 746 356 l 858 879 l 664 879 l 572 453 q 552 384 567 429 q 516 294 538 339 q 465 217 494 250 q 400 183 436 183 l 397 183 q 363 195 376 183 q 340 226 349 207 q 328 270 332 246 q 325 321 325 294 q 330 397 325 360 q 339 453 335 433 l 431 879 l 236 879 l 142 439 q 125 289 125 361 q 138 176 125 229 q 177 85 150 124 q 246 23 204 46 q 346 0 288 0 l 378 0 m 667 961 l 632 1108 l 465 1108 l 517 961 l 667 961 z "},"Ú":{"ha":719,"x_min":125,"x_max":858,"o":"m 560 1108 l 461 961 l 611 961 l 726 1108 l 560 1108 m 374 0 q 514 38 450 0 q 628 137 578 75 q 712 277 678 199 q 764 439 746 356 l 858 879 l 664 879 l 572 453 q 552 384 567 429 q 516 294 538 339 q 465 217 494 250 q 400 183 436 183 l 397 183 q 363 195 376 183 q 340 226 349 207 q 328 270 332 246 q 325 321 325 294 q 330 397 325 360 q 339 453 335 433 l 431 879 l 236 879 l 142 439 q 125 285 125 360 q 138 173 125 225 q 176 83 150 121 q 242 22 201 44 q 342 0 283 0 l 374 0 z "},"Û":{"ha":719,"x_min":125,"x_max":858,"o":"m 461 1108 l 353 961 l 514 961 l 586 1067 l 614 961 l 775 961 l 732 1108 l 461 1108 m 378 0 q 517 38 454 0 q 630 137 581 75 q 713 277 679 199 q 764 439 746 356 l 858 879 l 664 879 l 572 453 q 552 384 567 429 q 516 294 538 339 q 465 217 494 250 q 400 183 436 183 l 397 183 q 363 195 376 183 q 340 226 349 207 q 328 270 332 246 q 325 321 325 294 q 330 397 325 360 q 339 453 335 433 l 431 879 l 236 879 l 142 439 q 125 289 125 361 q 138 176 125 229 q 177 85 150 124 q 246 23 204 46 q 346 0 288 0 l 378 0 z "},"Ü":{"ha":719,"x_min":125,"x_max":858,"o":"m 378 0 q 517 38 454 0 q 630 137 581 75 q 713 277 679 199 q 764 439 746 356 l 858 879 l 664 879 l 572 453 q 552 384 567 429 q 516 294 538 339 q 465 217 494 250 q 400 183 436 183 l 397 183 q 363 195 376 183 q 340 226 349 207 q 328 270 332 246 q 325 321 325 294 q 330 397 325 360 q 339 453 335 433 l 431 879 l 236 879 l 142 439 q 125 289 125 361 q 138 176 125 229 q 177 85 150 124 q 246 23 204 46 q 346 0 288 0 l 378 0 m 646 1108 l 614 961 l 775 961 l 807 1108 l 646 1108 m 514 961 l 546 1108 l 385 1108 l 353 961 l 514 961 z "},"Ý":{"ha":719,"x_min":199,"x_max":858,"o":"m 838 786 q 795 643 822 713 q 728 515 768 574 q 638 415 689 457 q 526 357 588 374 l 513 293 q 504 250 508 276 q 497 194 500 224 q 491 135 493 165 q 489 78 489 104 l 489 53 q 490 44 489 50 q 492 32 490 39 l 231 -139 l 336 361 q 274 401 300 375 q 231 463 247 428 q 206 542 214 499 q 199 635 199 586 q 215 786 199 708 l 236 879 l 431 879 l 413 800 q 403 744 408 781 q 399 668 399 707 q 402 617 399 642 q 414 574 406 593 q 436 542 422 554 q 471 531 450 531 l 474 531 q 539 564 510 531 q 590 642 568 597 q 626 731 611 686 q 646 800 640 776 l 664 879 l 858 879 l 838 786 m 726 1108 l 611 961 l 461 961 l 560 1108 l 726 1108 z "},"Þ":{"ha":613,"x_min":19,"x_max":681,"o":"m 428 879 l 393 721 l 592 721 q 640 692 611 721 q 679 608 668 663 q 681 597 681 604 l 681 586 l 681 567 l 681 544 q 678 526 681 540 q 627 402 663 458 q 540 306 592 346 q 424 244 489 267 q 288 222 360 222 l 285 210 q 276 163 279 186 q 274 114 274 139 q 282 32 274 75 l 19 -139 l 236 879 l 428 879 m 308 322 l 311 319 q 398 369 361 333 q 446 453 435 404 q 448 465 447 460 q 449 476 449 471 l 449 490 q 447 506 449 503 q 445 517 447 508 q 436 532 443 525 l 353 532 l 308 322 z "},"ß":{"ha":729,"x_min":49,"x_max":833,"o":"m 513 879 q 375 842 436 879 q 268 742 314 804 q 191 602 222 681 q 142 440 160 524 l 49 0 l 243 0 l 333 426 q 351 494 338 449 q 386 585 365 540 q 433 665 407 631 q 486 699 458 699 l 589 699 q 597 683 594 692 q 600 672 600 675 l 601 647 q 601 633 601 640 q 599 619 600 626 q 553 545 588 571 q 468 506 518 519 l 464 506 l 436 374 l 440 376 q 501 344 478 365 q 525 288 525 324 l 525 274 q 522 260 525 271 q 501 208 517 233 q 493 197 499 206 q 479 181 488 188 l 396 181 l 357 0 l 556 0 q 580 6 564 0 q 615 25 596 13 q 653 57 633 38 q 689 104 672 76 q 709 146 701 125 q 721 186 717 167 q 731 268 731 224 q 636 439 731 386 q 829 693 790 508 q 833 743 833 715 l 833 758 q 832 775 833 771 q 792 854 821 829 q 743 879 763 879 l 513 879 z "},"à":{"ha":603,"x_min":19,"x_max":742,"o":"m 453 961 l 401 1108 l 568 1108 l 603 961 l 453 961 m 19 -139 l 147 461 q 183 578 158 515 q 246 699 208 640 q 331 803 283 757 q 438 871 379 850 q 459 876 446 874 q 475 879 472 879 l 742 879 l 554 0 l 361 0 l 426 306 l 306 306 l 300 293 q 294 253 297 276 q 287 202 290 229 q 281 147 283 175 q 278 92 278 118 q 282 32 278 54 l 19 -139 m 503 699 q 449 664 474 686 q 406 614 425 642 q 371 555 386 586 q 344 493 356 524 l 346 489 l 465 489 l 507 688 l 503 699 z "},"á":{"ha":603,"x_min":19,"x_max":742,"o":"m 693 1108 l 578 961 l 428 961 l 526 1108 l 693 1108 m 19 -139 l 147 461 q 183 578 158 515 q 246 699 208 640 q 331 803 283 757 q 438 871 379 850 q 459 876 446 874 q 475 879 472 879 l 742 879 l 554 0 l 361 0 l 426 306 l 306 306 l 300 293 q 294 253 297 276 q 287 202 290 229 q 281 147 283 175 q 278 92 278 118 q 282 32 278 54 l 19 -139 m 503 699 q 449 664 474 686 q 406 614 425 642 q 371 555 386 586 q 344 493 356 524 l 346 489 l 465 489 l 507 688 l 503 699 z "},"â":{"ha":603,"x_min":19,"x_max":756,"o":"m 19 -139 l 147 461 q 183 578 158 515 q 246 699 208 640 q 331 803 283 757 q 438 871 379 850 q 459 876 446 874 q 475 879 472 879 l 742 879 l 554 0 l 361 0 l 426 306 l 306 306 l 300 293 q 294 253 297 276 q 287 202 290 229 q 281 147 283 175 q 278 92 278 118 q 282 32 278 54 l 19 -139 m 503 699 q 449 664 474 686 q 406 614 425 642 q 371 555 386 586 q 344 493 356 524 l 346 489 l 465 489 l 507 688 l 503 699 m 713 1108 l 756 961 l 594 961 l 567 1067 l 494 961 l 333 961 l 442 1108 l 713 1108 z "},"ã":{"ha":603,"x_min":19,"x_max":844,"o":"m 19 -139 l 147 461 q 183 578 158 515 q 246 699 208 640 q 331 803 283 757 q 438 871 379 850 q 459 876 446 874 q 475 879 472 879 l 742 879 l 554 0 l 361 0 l 426 306 l 306 306 l 300 293 q 294 253 297 276 q 287 202 290 229 q 281 147 283 175 q 278 92 278 118 q 282 32 278 54 l 19 -139 m 503 699 q 449 664 474 686 q 406 614 425 642 q 371 555 386 586 q 344 493 356 524 l 346 489 l 465 489 l 507 688 l 503 699 m 517 961 l 489 1067 l 417 961 l 256 961 l 364 1108 l 583 1108 l 610 1003 l 683 1108 l 844 1108 l 736 961 l 517 961 z "},"ä":{"ha":603,"x_min":19,"x_max":790,"o":"m 336 961 l 368 1108 l 529 1108 l 497 961 l 336 961 m 790 1108 l 758 961 l 597 961 l 629 1108 l 790 1108 m 19 -139 l 147 461 q 183 578 158 515 q 246 699 208 640 q 331 803 283 757 q 438 871 379 850 q 459 876 446 874 q 475 879 472 879 l 742 879 l 554 0 l 361 0 l 426 306 l 306 306 l 300 293 q 294 253 297 276 q 287 202 290 229 q 281 147 283 175 q 278 92 278 118 q 282 32 278 54 l 19 -139 m 503 699 q 449 664 474 686 q 406 614 425 642 q 371 555 386 586 q 344 493 356 524 l 346 489 l 465 489 l 507 688 l 503 699 z "},"å":{"ha":603,"x_min":19,"x_max":742,"o":"m 504 1108 l 472 961 l 633 961 l 665 1108 l 504 1108 m 503 699 l 507 688 l 465 489 l 346 489 l 344 493 q 371 555 356 524 q 406 614 386 586 q 449 664 425 642 q 503 699 474 686 m 147 461 l 19 -139 l 282 32 q 278 92 278 54 q 281 147 278 118 q 287 202 283 175 q 294 253 290 229 q 300 293 297 276 l 306 306 l 426 306 l 361 0 l 554 0 l 742 879 l 475 879 q 459 876 472 879 q 438 871 446 874 q 331 803 379 850 q 246 699 283 757 q 183 578 208 640 q 147 461 158 515 m 539 1014 l 549 1056 l 597 1056 l 588 1014 l 539 1014 z "},"æ":{"ha":904,"x_min":19,"x_max":1043,"o":"m 19 -139 l 147 461 q 183 578 158 515 q 246 699 208 640 q 331 803 283 757 q 438 871 379 850 q 459 876 446 874 q 475 879 472 879 l 1043 879 l 1003 696 l 701 696 l 667 531 l 881 531 l 842 347 l 628 347 l 593 183 l 894 183 l 856 0 l 361 0 l 426 306 l 306 306 l 300 293 q 294 253 297 276 q 287 202 290 229 q 281 147 283 175 q 278 92 278 118 q 282 32 278 54 l 19 -139 m 503 699 q 449 664 474 686 q 406 614 425 642 q 371 555 386 586 q 344 493 356 524 l 346 489 l 465 489 l 507 688 l 503 699 z "},"ç":{"ha":590,"x_min":124,"x_max":729,"o":"m 689 696 l 519 696 q 453 660 483 686 q 401 599 424 633 q 362 525 378 564 q 339 453 346 486 q 332 404 336 435 q 328 339 328 374 q 331 283 328 311 q 344 233 335 256 q 368 197 353 211 q 407 183 383 183 l 581 183 l 542 0 l 406 0 l 357 -226 l 151 -226 l 182 -83 l 244 -83 l 265 14 q 158 118 192 43 q 124 290 124 193 q 140 439 124 364 l 142 446 q 190 597 157 519 q 267 736 222 674 q 369 839 313 799 q 488 879 425 879 l 729 879 l 689 696 z "},"è":{"ha":592,"x_min":49,"x_max":731,"o":"m 453 961 l 401 1108 l 568 1108 l 603 961 l 453 961 m 49 0 l 236 879 l 731 879 l 690 696 l 389 696 l 354 531 l 568 531 l 529 347 l 315 347 l 281 183 l 582 183 l 543 0 l 49 0 z "},"é":{"ha":592,"x_min":49,"x_max":731,"o":"m 663 1108 l 547 961 l 397 961 l 496 1108 l 663 1108 m 49 0 l 236 879 l 731 879 l 690 696 l 389 696 l 354 531 l 568 531 l 529 347 l 315 347 l 281 183 l 582 183 l 543 0 l 49 0 z "},"ê":{"ha":592,"x_min":49,"x_max":731,"o":"m 668 1108 l 711 961 l 550 961 l 522 1067 l 450 961 l 289 961 l 397 1108 l 668 1108 m 49 0 l 236 879 l 731 879 l 690 696 l 389 696 l 354 531 l 568 531 l 529 347 l 315 347 l 281 183 l 582 183 l 543 0 l 49 0 z "},"ë":{"ha":592,"x_min":49,"x_max":743,"o":"m 289 961 l 321 1108 l 482 1108 l 450 961 l 289 961 m 743 1108 l 711 961 l 550 961 l 582 1108 l 743 1108 m 49 0 l 236 879 l 731 879 l 690 696 l 389 696 l 354 531 l 568 531 l 529 347 l 315 347 l 281 183 l 582 183 l 543 0 l 49 0 z "},"ì":{"ha":290,"x_min":19,"x_max":465,"o":"m 315 961 l 264 1108 l 431 1108 l 465 961 l 315 961 m 428 879 l 303 293 q 294 251 299 276 q 287 197 290 226 q 281 138 283 168 q 279 81 279 107 l 279 54 q 280 44 279 50 q 282 32 281 39 l 19 -139 l 236 879 l 428 879 z "},"í":{"ha":290,"x_min":19,"x_max":497,"o":"m 497 1108 l 382 961 l 232 961 l 331 1108 l 497 1108 m 428 879 l 303 293 q 294 251 299 276 q 287 197 290 226 q 281 138 283 168 q 279 81 279 107 l 279 54 q 280 44 279 50 q 282 32 281 39 l 19 -139 l 236 879 l 428 879 z "},"î":{"ha":290,"x_min":19,"x_max":561,"o":"m 518 1108 l 561 961 l 400 961 l 372 1067 l 300 961 l 139 961 l 247 1108 l 518 1108 m 428 879 l 303 293 q 294 251 299 276 q 287 197 290 226 q 281 138 283 168 q 279 81 279 107 l 279 54 q 280 44 279 50 q 282 32 281 39 l 19 -139 l 236 879 l 428 879 z "},"ï":{"ha":290,"x_min":19,"x_max":593,"o":"m 139 961 l 171 1108 l 332 1108 l 300 961 l 139 961 m 593 1108 l 561 961 l 400 961 l 432 1108 l 593 1108 m 428 879 l 303 293 q 294 251 299 276 q 287 197 290 226 q 281 138 283 168 q 279 81 279 107 l 279 54 q 280 44 279 50 q 282 32 281 39 l 19 -139 l 236 879 l 428 879 z "},"ð":{"ha":650,"x_min":49,"x_max":714,"o":"m 49 0 l 303 0 q 444 38 379 0 q 558 137 508 75 q 643 277 608 199 q 696 439 678 356 l 697 446 q 713 597 713 519 q 696 736 714 674 q 639 839 678 799 q 538 879 600 879 l 519 879 l 542 985 l 358 985 l 336 879 l 236 879 l 196 696 l 296 696 l 275 592 l 458 592 l 472 663 q 501 602 492 638 q 511 531 511 567 l 161 531 l 49 0 m 469 347 q 441 288 457 318 q 406 233 425 257 q 366 194 388 210 q 319 179 344 179 l 278 179 l 314 347 l 469 347 z "},"ñ":{"ha":639,"x_min":49,"x_max":833,"o":"m 506 961 l 478 1067 l 406 961 l 244 961 l 353 1108 l 572 1108 l 599 1003 l 672 1108 l 833 1108 l 725 961 l 506 961 m 49 0 l 236 879 l 426 879 l 540 668 l 586 879 l 778 879 l 590 0 l 399 0 l 489 424 l 376 633 l 242 0 l 49 0 z "},"ò":{"ha":738,"x_min":124,"x_max":801,"o":"m 525 961 l 474 1108 l 640 1108 l 675 961 l 525 961 m 399 0 l 344 0 q 244 23 286 0 q 176 85 203 46 q 136 176 149 124 q 124 289 124 229 q 140 439 124 361 l 142 446 q 188 595 157 518 q 266 735 218 672 q 380 839 314 799 q 533 879 446 879 l 586 879 q 688 856 646 879 q 754 794 729 833 q 790 705 779 756 q 801 599 801 654 q 797 522 801 561 q 785 446 792 483 l 783 439 q 732 277 765 356 q 650 137 699 199 q 538 38 601 75 q 399 0 475 0 m 515 696 q 451 661 481 688 q 398 599 421 635 q 360 525 375 564 q 339 453 344 486 q 331 399 335 433 q 326 329 326 365 q 330 276 326 301 q 342 229 333 250 q 365 196 350 208 q 403 183 379 183 l 414 183 q 480 217 449 183 q 535 294 511 250 q 574 384 558 339 q 593 453 589 429 q 601 544 601 494 q 598 595 601 571 q 585 640 594 619 q 562 676 576 661 q 525 696 547 690 l 515 696 z "},"ó":{"ha":738,"x_min":124,"x_max":801,"o":"m 735 1108 l 619 961 l 469 961 l 568 1108 l 735 1108 m 399 0 l 344 0 q 244 23 286 0 q 176 85 203 46 q 136 176 149 124 q 124 289 124 229 q 140 439 124 361 l 142 446 q 188 595 157 518 q 266 735 218 672 q 380 839 314 799 q 533 879 446 879 l 586 879 q 688 856 646 879 q 754 794 729 833 q 790 705 779 756 q 801 599 801 654 q 797 522 801 561 q 785 446 792 483 l 783 439 q 732 277 765 356 q 650 137 699 199 q 538 38 601 75 q 399 0 475 0 m 515 696 q 451 661 481 688 q 398 599 421 635 q 360 525 375 564 q 339 453 344 486 q 331 399 335 433 q 326 329 326 365 q 330 276 326 301 q 342 229 333 250 q 365 196 350 208 q 403 183 379 183 l 414 183 q 480 217 449 183 q 535 294 511 250 q 574 384 558 339 q 593 453 589 429 q 601 544 601 494 q 598 595 601 571 q 585 640 594 619 q 562 676 576 661 q 525 696 547 690 l 515 696 z "},"ô":{"ha":738,"x_min":124,"x_max":801,"o":"m 740 1108 l 783 961 l 622 961 l 594 1067 l 522 961 l 361 961 l 469 1108 l 740 1108 m 399 0 l 344 0 q 244 23 286 0 q 176 85 203 46 q 136 176 149 124 q 124 289 124 229 q 140 439 124 361 l 142 446 q 188 595 157 518 q 266 735 218 672 q 380 839 314 799 q 533 879 446 879 l 586 879 q 688 856 646 879 q 754 794 729 833 q 790 705 779 756 q 801 599 801 654 q 797 522 801 561 q 785 446 792 483 l 783 439 q 732 277 765 356 q 650 137 699 199 q 538 38 601 75 q 399 0 475 0 m 515 696 q 451 661 481 688 q 398 599 421 635 q 360 525 375 564 q 339 453 344 486 q 331 399 335 433 q 326 329 326 365 q 330 276 326 301 q 342 229 333 250 q 365 196 350 208 q 403 183 379 183 l 414 183 q 480 217 449 183 q 535 294 511 250 q 574 384 558 339 q 593 453 589 429 q 601 544 601 494 q 598 595 601 571 q 585 640 594 619 q 562 676 576 661 q 525 696 547 690 l 515 696 z "},"õ":{"ha":738,"x_min":124,"x_max":883,"o":"m 556 961 l 528 1067 l 456 961 l 294 961 l 403 1108 l 622 1108 l 649 1003 l 722 1108 l 883 1108 l 775 961 l 556 961 m 399 0 l 344 0 q 244 23 286 0 q 176 85 203 46 q 136 176 149 124 q 124 289 124 229 q 140 439 124 361 l 142 446 q 188 595 157 518 q 266 735 218 672 q 380 839 314 799 q 533 879 446 879 l 586 879 q 688 856 646 879 q 754 794 729 833 q 790 705 779 756 q 801 599 801 654 q 797 522 801 561 q 785 446 792 483 l 783 439 q 732 277 765 356 q 650 137 699 199 q 538 38 601 75 q 399 0 475 0 m 515 696 q 451 661 481 688 q 398 599 421 635 q 360 525 375 564 q 339 453 344 486 q 331 399 335 433 q 326 329 326 365 q 330 276 326 301 q 342 229 333 250 q 365 196 350 208 q 403 183 379 183 l 414 183 q 480 217 449 183 q 535 294 511 250 q 574 384 558 339 q 593 453 589 429 q 601 544 601 494 q 598 595 601 571 q 585 640 594 619 q 562 676 576 661 q 525 696 547 690 l 515 696 z "},"ö":{"ha":738,"x_min":124,"x_max":815,"o":"m 361 961 l 393 1108 l 554 1108 l 522 961 l 361 961 m 815 1108 l 783 961 l 622 961 l 654 1108 l 815 1108 m 399 0 l 344 0 q 244 23 286 0 q 176 85 203 46 q 136 176 149 124 q 124 289 124 229 q 140 439 124 361 l 142 446 q 188 595 157 518 q 266 735 218 672 q 380 839 314 799 q 533 879 446 879 l 586 879 q 688 856 646 879 q 754 794 729 833 q 790 705 779 756 q 801 599 801 654 q 797 522 801 561 q 785 446 792 483 l 783 439 q 732 277 765 356 q 650 137 699 199 q 538 38 601 75 q 399 0 475 0 m 515 696 q 451 661 481 688 q 398 599 421 635 q 360 525 375 564 q 339 453 344 486 q 331 399 335 433 q 326 329 326 365 q 330 276 326 301 q 342 229 333 250 q 365 196 350 208 q 403 183 379 183 l 414 183 q 480 217 449 183 q 535 294 511 250 q 574 384 558 339 q 593 453 589 429 q 601 544 601 494 q 598 595 601 571 q 585 640 594 619 q 562 676 576 661 q 525 696 547 690 l 515 696 z "},"÷":{"ha":675,"x_min":122,"x_max":739,"o":"m 265 115 l 304 299 l 497 299 l 458 115 l 265 115 m 364 579 l 403 763 l 596 763 l 557 579 l 364 579 m 161 531 l 739 531 l 700 347 l 122 347 l 161 531 z "},"ø":{"ha":738,"x_min":124,"x_max":801,"o":"m 344 0 q 244 23 286 0 q 176 85 203 46 q 136 176 149 124 q 124 289 124 229 q 140 439 124 361 l 142 446 q 188 595 157 518 q 266 735 218 672 q 380 839 314 799 q 533 879 446 879 l 586 879 q 688 856 646 879 q 754 794 729 833 q 790 705 779 756 q 801 599 801 654 q 797 522 801 561 q 785 446 792 483 l 783 439 q 732 277 765 356 q 650 137 699 199 q 538 38 601 75 q 399 0 475 0 l 344 0 m 600 510 l 401 183 l 414 183 q 480 217 449 183 q 534 294 511 250 q 572 384 557 339 q 592 453 588 429 q 600 510 599 481 m 515 696 q 450 661 479 688 q 398 599 421 635 q 360 525 375 564 q 338 453 344 486 q 332 419 335 439 q 326 375 329 399 l 521 696 l 515 696 z "},"ù":{"ha":719,"x_min":125,"x_max":858,"o":"m 378 0 q 517 38 454 0 q 630 137 581 75 q 713 277 679 199 q 764 439 746 356 l 858 879 l 664 879 l 572 453 q 552 384 567 429 q 516 294 538 339 q 465 217 494 250 q 400 183 436 183 l 397 183 q 363 195 376 183 q 340 226 349 207 q 328 270 332 246 q 325 321 325 294 q 330 397 325 360 q 339 453 335 433 l 431 879 l 236 879 l 142 439 q 125 289 125 361 q 138 176 125 229 q 177 85 150 124 q 246 23 204 46 q 346 0 288 0 l 378 0 m 667 961 l 632 1108 l 465 1108 l 517 961 l 667 961 z "},"ú":{"ha":719,"x_min":125,"x_max":858,"o":"m 560 1108 l 461 961 l 611 961 l 726 1108 l 560 1108 m 374 0 q 514 38 450 0 q 628 137 578 75 q 712 277 678 199 q 764 439 746 356 l 858 879 l 664 879 l 572 453 q 552 384 567 429 q 516 294 538 339 q 465 217 494 250 q 400 183 436 183 l 397 183 q 363 195 376 183 q 340 226 349 207 q 328 270 332 246 q 325 321 325 294 q 330 397 325 360 q 339 453 335 433 l 431 879 l 236 879 l 142 439 q 125 285 125 360 q 138 173 125 225 q 176 83 150 121 q 242 22 201 44 q 342 0 283 0 l 374 0 z "},"û":{"ha":719,"x_min":125,"x_max":858,"o":"m 461 1108 l 353 961 l 514 961 l 586 1067 l 614 961 l 775 961 l 732 1108 l 461 1108 m 378 0 q 517 38 454 0 q 630 137 581 75 q 713 277 679 199 q 764 439 746 356 l 858 879 l 664 879 l 572 453 q 552 384 567 429 q 516 294 538 339 q 465 217 494 250 q 400 183 436 183 l 397 183 q 363 195 376 183 q 340 226 349 207 q 328 270 332 246 q 325 321 325 294 q 330 397 325 360 q 339 453 335 433 l 431 879 l 236 879 l 142 439 q 125 289 125 361 q 138 176 125 229 q 177 85 150 124 q 246 23 204 46 q 346 0 288 0 l 378 0 z "},"ü":{"ha":719,"x_min":125,"x_max":858,"o":"m 378 0 q 517 38 454 0 q 630 137 581 75 q 713 277 679 199 q 764 439 746 356 l 858 879 l 664 879 l 572 453 q 552 384 567 429 q 516 294 538 339 q 465 217 494 250 q 400 183 436 183 l 397 183 q 363 195 376 183 q 340 226 349 207 q 328 270 332 246 q 325 321 325 294 q 330 397 325 360 q 339 453 335 433 l 431 879 l 236 879 l 142 439 q 125 289 125 361 q 138 176 125 229 q 177 85 150 124 q 246 23 204 46 q 346 0 288 0 l 378 0 m 646 1108 l 614 961 l 775 961 l 807 1108 l 646 1108 m 514 961 l 546 1108 l 385 1108 l 353 961 l 514 961 z "},"ý":{"ha":719,"x_min":199,"x_max":858,"o":"m 838 786 q 795 643 822 713 q 728 515 768 574 q 638 415 689 457 q 526 357 588 374 l 513 293 q 504 250 508 276 q 497 194 500 224 q 491 135 493 165 q 489 78 489 104 l 489 53 q 490 44 489 50 q 492 32 490 39 l 231 -139 l 336 361 q 274 401 300 375 q 231 463 247 428 q 206 542 214 499 q 199 635 199 586 q 215 786 199 708 l 236 879 l 431 879 l 413 800 q 403 744 408 781 q 399 668 399 707 q 402 617 399 642 q 414 574 406 593 q 436 542 422 554 q 471 531 450 531 l 474 531 q 539 564 510 531 q 590 642 568 597 q 626 731 611 686 q 646 800 640 776 l 664 879 l 858 879 l 838 786 m 726 1108 l 611 961 l 461 961 l 560 1108 l 726 1108 z "},"þ":{"ha":613,"x_min":19,"x_max":681,"o":"m 428 879 l 393 721 l 592 721 q 640 692 611 721 q 679 608 668 663 q 681 597 681 604 l 681 586 l 681 567 l 681 544 q 678 526 681 540 q 627 402 663 458 q 540 306 592 346 q 424 244 489 267 q 288 222 360 222 l 285 210 q 276 163 279 186 q 274 114 274 139 q 282 32 274 75 l 19 -139 l 236 879 l 428 879 m 308 322 l 311 319 q 398 369 361 333 q 446 453 435 404 q 448 465 447 460 q 449 476 449 471 l 449 490 q 447 506 449 503 q 445 517 447 508 q 436 532 443 525 l 353 532 l 308 322 z "},"ÿ":{"ha":719,"x_min":199,"x_max":858,"o":"m 838 786 q 795 643 822 713 q 728 515 768 574 q 638 415 689 457 q 526 357 588 374 l 513 293 q 504 250 508 276 q 497 194 500 224 q 491 135 493 165 q 489 78 489 104 l 489 53 q 490 44 489 50 q 492 32 490 39 l 231 -139 l 336 361 q 274 401 300 375 q 231 463 247 428 q 206 542 214 499 q 199 635 199 586 q 215 786 199 708 l 236 879 l 431 879 l 413 800 q 403 744 408 781 q 399 668 399 707 q 402 617 399 642 q 414 574 406 593 q 436 542 422 554 q 471 531 450 531 l 474 531 q 539 564 510 531 q 590 642 568 597 q 626 731 611 686 q 646 800 640 776 l 664 879 l 858 879 l 838 786 m 353 961 l 385 1108 l 546 1108 l 514 961 l 353 961 m 807 1108 l 775 961 l 614 961 l 646 1108 l 807 1108 z "}}}
